<?xml version="1.0" encoding="UTF-8" standalone="no"?>
<!-- Created with Inkscape (http://www.inkscape.org/) -->

<svg
   xmlns:dc="http://purl.org/dc/elements/1.1/"
   xmlns:cc="http://creativecommons.org/ns#"
   xmlns:rdf="http://www.w3.org/1999/02/22-rdf-syntax-ns#"
   xmlns:svg="http://www.w3.org/2000/svg"
   xmlns="http://www.w3.org/2000/svg"
   xmlns:sodipodi="http://sodipodi.sourceforge.net/DTD/sodipodi-0.dtd"
   xmlns:inkscape="http://www.inkscape.org/namespaces/inkscape"
   version="1.2"
   width="210mm"
   height="297mm"
   id="svg3139"
   inkscape:version="0.48.4 r9939"
   sodipodi:docname="Mikl_Leitner_A4-textumgewandelt.svg">
  <sodipodi:namedview
     pagecolor="#ffffff"
     bordercolor="#666666"
     borderopacity="1"
     objecttolerance="10"
     gridtolerance="10"
     guidetolerance="10"
     inkscape:pageopacity="0"
     inkscape:pageshadow="2"
     inkscape:window-width="1536"
     inkscape:window-height="803"
     id="namedview81"
     showgrid="false"
     inkscape:zoom="1.0091583"
     inkscape:cx="852.70241"
     inkscape:cy="547.77584"
     inkscape:window-x="-8"
     inkscape:window-y="-8"
     inkscape:window-maximized="1"
     inkscape:current-layer="svg3139" />
  <defs
     id="defs3" />
  <metadata
     id="metadata4">
    <rdf:RDF>
      <cc:Work
         rdf:about="">
        <dc:format>image/svg+xml</dc:format>
        <dc:type
           rdf:resource="http://purl.org/dc/dcmitype/StillImage" />
        <dc:title></dc:title>
      </cc:Work>
    </rdf:RDF>
  </metadata>
  <g
     id="text3061"
     style="font-size:120px;font-style:normal;font-variant:normal;font-weight:normal;font-stretch:normal;text-align:center;line-height:125%;letter-spacing:0px;word-spacing:0px;text-anchor:middle;fill:none;stroke:#000000;stroke-width:0.09;stroke-miterlimit:4;stroke-opacity:1;stroke-dasharray:none;font-family:Stencil Camera;-inkscape-font-specification:Stencil Camera"
     transform="translate(25.248126,129.90019)">
    <path
       d="m 156.71118,-30.817572 -17.0993,0 0,-51.680603 5.69977,0 0,-19.378055 3.32534,0 c 5.38274,7e-5 8.07413,2.691468 8.07419,8.074192 z m -14.44076,-54.718933 -5.69977,0 0,54.718933 -17.00363,0 0,-51.680603 5.50842,0 0,-19.378055 17.19498,0 z m -20.23331,0 -5.51132,0 0,54.718933 -17.099307,0 0,-62.984466 c -3e-6,-5.382724 2.659497,-8.074122 7.978517,-8.074192 l 14.63211,0 z"
       id="path3844"
       style="font-size:95px;stroke:#000000"
       inkscape:connector-curvature="0" />
    <path
       d="m 180.53946,-30.817572 -17.0993,0 0,-71.058658 17.0993,0 z"
       id="path3846"
       style="font-size:95px;stroke:#000000"
       inkscape:connector-curvature="0" />
    <path
       d="m 235.64108,-30.817572 -17.95746,0 -13.77395,-37.99942 10.45151,-11.875 0,-21.184238 17.0993,0 0,28.498844 -8.16986,8.833771 z m -31.35162,0 -17.0993,0 0,-71.058658 17.0993,0 0,27.927707 -4.46472,4.560395 4.46472,10.639953 z"
       id="path3848"
       style="font-size:95px;stroke:#000000"
       inkscape:connector-curvature="0" />
    <path
       d="m 254.57266,-30.817572 -17.0993,0 0,-71.058658 17.0993,0 z m 19.76074,0 -16.71951,0 0,-17.099304 16.71951,0 z"
       id="path3850"
       style="font-size:95px;stroke:#000000"
       inkscape:connector-curvature="0" />
    <path
       d="m 302.95691,-53.048407 -23.17886,0 0,-13.965301 23.17886,0 z"
       id="path3852"
       style="font-size:95px;stroke:#000000"
       inkscape:connector-curvature="0" />
    <path
       d="m 326.7504,-30.817572 -17.09931,0 0,-71.058658 17.09931,0 z m 19.76074,0 -16.71951,0 0,-17.099304 16.71951,0 z"
       id="path3854"
       style="font-size:95px;stroke:#000000"
       inkscape:connector-curvature="0" />
    <path
       d="m 387.20099,-85.536505 -23.08609,0 0,-16.339725 23.08609,0 z m 0,27.927704 -17.38632,0 0,26.791229 -17.09931,0 0,-71.058658 8.36121,0 0,19.378055 8.7381,0 0,7.981415 17.38632,0 z m 0,26.791229 -14.34509,0 0,-17.099304 14.34509,0 z"
       id="path3856"
       style="font-size:95px;stroke:#000000"
       inkscape:connector-curvature="0" />
    <path
       d="m 410.80313,-30.817572 -17.0993,0 0,-71.058658 17.0993,0 z"
       id="path3858"
       style="font-size:95px;stroke:#000000"
       inkscape:connector-curvature="0" />
    <path
       d="m 455.45325,-85.536505 -37.99942,0 0,-16.339725 37.99942,0 z m -10.44861,54.718933 -17.1022,0 0,-51.680603 17.1022,0 z"
       id="path3860"
       style="font-size:95px;stroke:#000000"
       inkscape:connector-curvature="0" />
    <path
       d="m 503.70703,-30.817572 -17.0993,0 0,-54.718933 -12.44614,0 0,-16.339725 21.56693,0 c 5.31896,7e-5 7.97847,2.691468 7.97851,8.074192 z m -25.36484,0 -17.0993,0 0,-62.984466 c 0,-5.382724 2.72328,-8.074122 8.16986,-8.074192 l 1.71051,0 0,19.378055 7.21893,0 z"
       id="path3862"
       style="font-size:95px;stroke:#000000"
       inkscape:connector-curvature="0" />
    <path
       d="m 544.91583,-85.536505 -23.08609,0 0,-16.339725 23.08609,0 z m 0,27.927704 -17.38632,0 0,26.791229 -17.0993,0 0,-71.058658 8.3612,0 0,19.378055 8.7381,0 0,7.981415 17.38632,0 z m 0,26.791229 -14.34509,0 0,-17.099304 14.34509,0 z"
       id="path3864"
       style="font-size:95px;stroke:#000000"
       inkscape:connector-curvature="0" />
    <path
       d="m 596.54425,-30.817572 -13.58551,0 c -2.47012,0 -3.99025,-0.427627 -4.56039,-1.282882 -0.5702,-0.855253 -0.85529,-3.088095 -0.85526,-6.698532 l 0,-20.233307 -5.98389,0 0,-17.099305 5.98389,0 0,-9.404907 -12.25479,0 0,-16.339725 21.27991,0 c 5.38275,7e-5 8.07414,2.691468 8.07419,8.074192 l 0,18.618469 c -5e-5,2.66148 -1.6777,5.099679 -5.03296,7.314606 3.35526,2.661472 5.03291,5.131562 5.03296,7.410278 l 0,24.416809 c -5e-5,1.963708 0.6339,3.705141 1.90185,5.224304 z m -28.02628,0 -17.0993,0 0,-71.058658 10.8284,0 0,19.378055 6.2709,0 z"
       id="path3866"
       style="font-size:95px;stroke:#000000"
       inkscape:connector-curvature="0" />
    <path
       d="m 27.834381,52.782428 -17.099304,0 0,-71.058655 17.099304,0 z"
       id="path3868"
       style="font-size:95px;stroke:#000000"
       inkscape:connector-curvature="0" />
    <path
       d="m 78.37561,4.9983093 -17.102203,0 0,-23.2745363 8.932343,0 c 5.446529,7.1e-5 8.169813,2.469195 8.16986,7.407379 z m 0,39.6142577 c -4.7e-5,5.446577 -2.723331,8.169861 -8.16986,8.169861 l -15.58014,0 0,-17.099304 6.647797,0 0,-10.355835 -18.714142,0 c -5.382798,2.7e-5 -8.074191,-3.071157 -8.074188,-9.213562 l 0,-26.982575 c -3e-6,-4.938184 2.69139,-7.407308 8.074188,-7.407379 l 15.675812,0 0,16.3397218 -6.650696,0 0,9.9731445 18.621369,0 c 5.446529,4.48e-5 8.169813,2.6924047 8.16986,8.0770877 z m -26.791229,8.169861 -9.025116,0 c -5.382798,0 -8.074191,-2.723284 -8.074188,-8.169861 l 0,-16.244049 17.099304,0 z"
       id="path3870"
       style="font-size:95px;stroke:#000000"
       inkscape:connector-curvature="0" />
    <path
       d="m 168.31076,44.801013 c -6e-5,2.661443 -0.76013,4.657037 -2.2802,5.986786 -1.52018,1.329753 -4.24395,1.994629 -8.17131,1.994629 l 0,-20.140534 -6.64779,0 0,-50.918121 17.0993,0 z m -13.48984,7.981415 -16.81518,0 0,-20.140534 -6.93482,0 0,-50.918121 17.09931,0 0,53.959351 6.65069,0 z m -19.85641,0 -15.95993,0 c -5.3828,0 -8.07419,-2.660469 -8.07419,-7.981415 l 0,-63.07724 17.0993,0 0,53.959351 6.93482,0 z"
       id="path3872"
       style="font-size:95px;stroke:#000000"
       inkscape:connector-curvature="0" />
    <path
       d="m 231.85767,52.782428 -17.4791,0 -11.59088,-42.180023 3.134,-15.5801394 -8.7381,0 2.84989,-13.2984926 11.39953,0 z m -24.79371,-13.205719 -15.29602,0 -3.51669,13.205719 -17.57477,0 19.19251,-71.058655 7.12326,0 -3.80081,16.3397218 8.83667,0 -6.07956,25.6489562 6.93481,0 z"
       id="path3874"
       style="font-size:95px;stroke:#000000"
       inkscape:connector-curvature="0" />
    <path
       d="m 272.68958,-1.9365052 -37.99942,0 0,-16.3397218 37.99942,0 z m -10.44861,54.7189332 -17.10221,0 0,-51.6806031 17.10221,0 z"
       id="path3876"
       style="font-size:95px;stroke:#000000"
       inkscape:connector-curvature="0" />
    <path
       d="m 320.4679,9.7471496 -17.09931,0 0,-28.0233766 9.02512,0 c 5.38275,7.1e-5 8.07414,2.691465 8.07419,8.074188 z m -20.13764,-11.6836548 -4.75174,0 0,54.7189332 -9.02511,0 c -5.3828,0 -8.0742,-2.691393 -8.07419,-8.074188 l 0,-54.910279 c -10e-6,-2.850784 0.61752,-4.909193 1.85257,-6.175232 1.23504,-1.2659 3.30891,-1.898885 6.22162,-1.898956 l 13.77685,0 z M 320.4679,44.70824 c -5e-5,5.382795 -2.69144,8.074188 -8.07419,8.074188 l -13.77396,0 0,-17.099304 4.74884,0 0,-11.115418 17.09931,0 z"
       id="path3878"
       style="font-size:95px;stroke:#000000"
       inkscape:connector-curvature="0" />
    <path
       d="m 367.75626,52.782428 -17.09931,0 0,-27.075348 -10.92407,0 0,-17.0993042 10.92407,0 0,-26.8840028 17.09931,0 z m -23.75,0 -17.09931,0 0,-71.058655 17.09931,0 0,23.8427736 -7.31461,0 0,23.1817624 7.31461,0 z"
       id="path3880"
       style="font-size:95px;stroke:#000000"
       inkscape:connector-curvature="0" />
    <path
       d="m 391.50626,52.782428 -17.09931,0 0,-71.058655 17.09931,0 z"
       id="path3882"
       style="font-size:95px;stroke:#000000"
       inkscape:connector-curvature="0" />
    <path
       d="m 440.62109,52.782428 -17.0993,0 0,-54.7189332 -12.44614,0 0,-16.3397218 21.56693,0 c 5.31897,7.1e-5 7.97847,2.691465 7.97851,8.074188 z m -25.36483,0 -17.09931,0 0,-62.984467 c 0,-5.382723 2.72328,-8.074117 8.16986,-8.074188 l 1.71051,0 0,19.3780519 7.21894,0 z"
       id="path3884"
       style="font-size:95px;stroke:#000000"
       inkscape:connector-curvature="0" />
    <path
       d="m 485.63071,-1.9365052 -27.45514,0 0,-16.3397218 27.45514,0 z m 2.0874,46.6447452 c -5e-5,5.382795 -2.65955,8.074188 -7.97852,8.074188 l -13.01437,0 0,-17.099304 3.89358,0 0,-8.83667 -3.89358,0 0,-17.5747683 20.99289,0 z m -24.03412,8.074188 -9.02512,0 c -5.38279,0 -8.07419,-2.691393 -8.07418,-8.074188 l 0,-54.910279 c -1e-5,-5.382723 2.84987,-8.074117 8.54965,-8.074188 l 0,19.3780519 8.54965,0 z"
       id="path3886"
       style="font-size:95px;stroke:#000000"
       inkscape:connector-curvature="0" />
    <path
       d="m 560.33652,22.193286 -17.09931,-10.639954 0,-29.829559 17.09931,0 z m -3.70514,1.519165 -7.12616,5.035858 0,24.034119 -17.09931,0 0,-23.845673 -12.15911,-7.218933 0,-39.994049 17.0993,0 0,29.829559 z"
       id="path3888"
       style="font-size:95px;stroke:#000000"
       inkscape:connector-curvature="0" />
    <path
       d="m 610.3414,44.70824 c -5e-5,5.382795 -2.65955,8.074188 -7.97852,8.074188 l -15.95993,0 0,-17.099304 6.83915,0 0,-53.959351 9.12078,0 c 5.31897,7.1e-5 7.97847,2.691465 7.97852,8.074188 z m -20.14053,-46.6447452 -6.83915,0 0,54.7189332 -8.92944,0 c -5.44658,0 -8.16986,-2.691393 -8.16986,-8.074188 l 0,-54.910279 c 0,-5.382723 2.72328,-8.074117 8.16986,-8.074188 l 15.76859,0 z"
       id="path3890"
       style="font-size:95px;stroke:#000000"
       inkscape:connector-curvature="0" />
    <path
       d="m 659.18661,44.70824 c -4e-5,2.848923 -0.72821,4.906848 -2.18452,6.173782 -1.45639,1.266938 -3.98978,1.900406 -7.60017,1.900406 l 0,-20.140534 -7.31461,0 0,-50.918121 17.0993,0 z m -12.82592,8.074188 -21.08856,0 c -5.44658,0 -8.16987,-2.691393 -8.16987,-8.074188 l 0,-62.984467 17.09931,0 0,53.959351 12.15912,0 z"
       id="path3892"
       style="font-size:95px;stroke:#000000"
       inkscape:connector-curvature="0" />
    <path
       d="m 683.96002,-18.276227 -2.47009,50.918121 -13.9653,0 -2.56577,-50.918121 z m -2.47009,71.058655 -13.9653,0 0,-17.099304 13.9653,0 z"
       id="path3894"
       style="font-size:95px;stroke:#000000"
       inkscape:connector-curvature="0" />
  </g>
  <path
     inkscape:connector-curvature="0"
     style="font-size:95px;font-style:normal;font-variant:normal;font-weight:normal;font-stretch:normal;text-align:center;line-height:125%;letter-spacing:0px;word-spacing:0px;text-anchor:middle;fill:none;stroke:#000000;stroke-width:0.09;stroke-miterlimit:4;stroke-opacity:1;stroke-dasharray:none;font-family:Stencil Camera;-inkscape-font-specification:Stencil Camera"
     id="path3767"
     d="m 189.36687,821.42546 -17.1022,0 0,-23.27454 8.93234,0 c 5.44653,7e-5 8.16982,2.4692 8.16986,7.40738 z m 0,39.61426 c -4e-5,5.44657 -2.72333,8.16986 -8.16986,8.16986 l -15.58014,0 0,-17.09931 6.6478,0 0,-10.35583 -18.71414,0 c -5.3828,3e-5 -8.07419,-3.07116 -8.07419,-9.21356 l 0,-26.98258 c 0,-4.93818 2.69139,-7.40731 8.07419,-7.40738 l 15.67581,0 0,16.33972 -6.6507,0 0,9.97315 18.62137,0 c 5.44653,4e-5 8.16982,2.6924 8.16986,8.07709 z m -26.79123,8.16986 -9.02511,0 c -5.3828,0 -8.07419,-2.72329 -8.07419,-8.16986 l 0,-16.24405 17.0993,0 z" />
  <path
     inkscape:connector-curvature="0"
     style="font-size:95px;font-style:normal;font-variant:normal;font-weight:normal;font-stretch:normal;text-align:center;line-height:125%;letter-spacing:0px;word-spacing:0px;text-anchor:middle;fill:none;stroke:#000000;stroke-width:0.09;stroke-miterlimit:4;stroke-opacity:1;stroke-dasharray:none;font-family:Stencil Camera;-inkscape-font-specification:Stencil Camera"
     id="path3769"
     d="m 233.75896,814.49064 -37.99942,0 0,-16.33972 37.99942,0 z m -10.4486,54.71894 -17.10221,0 0,-51.68061 17.10221,0 z" />
  <path
     inkscape:connector-curvature="0"
     style="font-size:95px;font-style:normal;font-variant:normal;font-weight:normal;font-stretch:normal;text-align:center;line-height:125%;letter-spacing:0px;word-spacing:0px;text-anchor:middle;fill:none;stroke:#000000;stroke-width:0.09;stroke-miterlimit:4;stroke-opacity:1;stroke-dasharray:none;font-family:Stencil Camera;-inkscape-font-specification:Stencil Camera"
     id="path3771"
     d="m 283.62759,861.13539 c -5e-5,5.38279 -2.65955,8.07419 -7.97852,8.07419 l -15.95993,0 0,-17.09931 6.83914,0 0,-53.95935 9.12079,0 c 5.31897,7e-5 7.97847,2.69147 7.97852,8.07419 z m -20.14054,-46.64475 -6.83914,0 0,54.71894 -8.92944,0 c -5.44658,0 -8.16987,-2.6914 -8.16986,-8.07419 l 0,-54.91028 c -1e-5,-5.38272 2.72328,-8.07412 8.16986,-8.07419 l 15.76858,0 z" />
  <path
     inkscape:connector-curvature="0"
     style="font-size:95px;font-style:normal;font-variant:normal;font-weight:normal;font-stretch:normal;text-align:center;line-height:125%;letter-spacing:0px;word-spacing:0px;text-anchor:middle;fill:none;stroke:#000000;stroke-width:0.09;stroke-miterlimit:4;stroke-opacity:1;stroke-dasharray:none;font-family:Stencil Camera;-inkscape-font-specification:Stencil Camera"
     id="path3773"
     d="m 332.66415,831.49428 c -5e-5,5.4466 -2.66052,8.16989 -7.98142,8.16986 l -14.15375,0 0,-16.4354 5.03296,0 0,-8.7381 -12.73025,0 0,-16.33972 21.85104,0 c 5.3209,7e-5 7.98137,2.50109 7.98142,7.50305 z m -25.1764,37.7153 -17.0993,0 0,-71.05866 9.40491,0 0,19.37805 7.69439,0 z" />
  <path
     inkscape:connector-curvature="0"
     style="font-size:95px;font-style:normal;font-variant:normal;font-weight:normal;font-stretch:normal;text-align:center;line-height:125%;letter-spacing:0px;word-spacing:0px;text-anchor:middle;fill:none;stroke:#000000;stroke-width:0.09;stroke-miterlimit:4;stroke-opacity:1;stroke-dasharray:none;font-family:Stencil Camera;-inkscape-font-specification:Stencil Camera"
     id="path3775"
     d="m 381.09188,831.49428 c -5e-5,5.4466 -2.66051,8.16989 -7.98141,8.16986 l -14.15375,0 0,-16.4354 5.03296,0 0,-8.7381 -12.73026,0 0,-16.33972 21.85105,0 c 5.3209,7e-5 7.98136,2.50109 7.98141,7.50305 z m -25.17639,37.7153 -17.09931,0 0,-71.05866 9.40491,0 0,19.37805 7.6944,0 z" />
  <path
     inkscape:connector-curvature="0"
     style="font-size:95px;font-style:normal;font-variant:normal;font-weight:normal;font-stretch:normal;text-align:center;line-height:125%;letter-spacing:0px;word-spacing:0px;text-anchor:middle;fill:none;stroke:#000000;stroke-width:0.09;stroke-miterlimit:4;stroke-opacity:1;stroke-dasharray:none;font-family:Stencil Camera;-inkscape-font-specification:Stencil Camera"
     id="path3777"
     d="m 425.24334,814.49064 -37.99942,0 0,-16.33972 37.99942,0 z m -10.44861,54.71894 -17.1022,0 0,-51.68061 17.1022,0 z" />
  <path
     inkscape:connector-curvature="0"
     style="font-size:95px;font-style:normal;font-variant:normal;font-weight:normal;font-stretch:normal;text-align:center;line-height:125%;letter-spacing:0px;word-spacing:0px;text-anchor:middle;fill:none;stroke:#000000;stroke-width:0.09;stroke-miterlimit:4;stroke-opacity:1;stroke-dasharray:none;font-family:Stencil Camera;-inkscape-font-specification:Stencil Camera"
     id="path3779"
     d="m 498.89965,861.13539 c -5e-5,5.38279 -2.69144,8.07419 -8.07419,8.07419 l -13.48984,0 0,-17.09931 4.46473,0 0,-53.95935 9.02511,0 c 5.38275,7e-5 8.07414,2.69147 8.07419,8.07419 z m -20.14053,-46.64475 -4.46473,0 0,54.71894 -17.0993,0 0,-71.05866 21.56403,0 z" />
  <path
     inkscape:connector-curvature="0"
     style="font-size:95px;font-style:normal;font-variant:normal;font-weight:normal;font-stretch:normal;text-align:center;line-height:125%;letter-spacing:0px;word-spacing:0px;text-anchor:middle;fill:none;stroke:#000000;stroke-width:0.09;stroke-miterlimit:4;stroke-opacity:1;stroke-dasharray:none;font-family:Stencil Camera;-inkscape-font-specification:Stencil Camera"
     id="path3781"
     d="m 562.90752,869.20958 -17.47909,0 -11.59088,-42.18003 3.134,-15.58014 -8.7381,0 2.84989,-13.29849 11.39953,0 z m -24.7937,-13.20572 -15.29602,0 -3.51669,13.20572 -17.57477,0 19.19251,-71.05866 7.12326,0 -3.80082,16.33972 8.83667,0 -6.07956,25.64896 6.93482,0 z" />
  <path
     inkscape:connector-curvature="0"
     style="font-size:95px;font-style:normal;font-variant:normal;font-weight:normal;font-stretch:normal;text-align:center;line-height:125%;letter-spacing:0px;word-spacing:0px;text-anchor:middle;fill:none;stroke:#000000;stroke-width:0.09;stroke-miterlimit:4;stroke-opacity:1;stroke-dasharray:none;font-family:Stencil Camera;-inkscape-font-specification:Stencil Camera"
     id="path3783"
     d="m 609.63055,821.42546 -17.10221,0 0,-23.27454 8.93234,0 c 5.44653,7e-5 8.16982,2.4692 8.16987,7.40738 z m 0,39.61426 c -5e-5,5.44657 -2.72334,8.16986 -8.16987,8.16986 l -15.58013,0 0,-17.09931 6.64779,0 0,-10.35583 -18.71414,0 c -5.3828,3e-5 -8.07419,-3.07116 -8.07419,-9.21356 l 0,-26.98258 c 0,-4.93818 2.69139,-7.40731 8.07419,-7.40738 l 15.67581,0 0,16.33972 -6.65069,0 0,9.97315 18.62136,0 c 5.44653,4e-5 8.16982,2.6924 8.16987,8.07709 z m -26.79123,8.16986 -9.02512,0 c -5.3828,0 -8.07419,-2.72329 -8.07419,-8.16986 l 0,-16.24405 17.09931,0 z" />
  <path
     inkscape:connector-curvature="0"
     style="font-size:95px;font-style:normal;font-variant:normal;font-weight:normal;font-stretch:normal;text-align:center;line-height:125%;letter-spacing:0px;word-spacing:0px;text-anchor:middle;fill:none;stroke:#000000;stroke-width:0.09;stroke-miterlimit:4;stroke-opacity:1;stroke-dasharray:none;font-family:Stencil Camera;-inkscape-font-specification:Stencil Camera"
     id="path3785"
     d="m 129.43523,905.02546 -17.1022,0 0,-23.27454 8.93234,0 c 5.44653,7e-5 8.16982,2.4692 8.16986,7.40738 z m 0,39.61426 c -4e-5,5.44657 -2.72333,8.16986 -8.16986,8.16986 l -15.58014,0 0,-17.09931 6.6478,0 0,-10.35583 -18.714144,0 c -5.3828,3e-5 -8.074194,-3.07116 -8.07419,-9.21356 l 0,-26.98258 c -4e-6,-4.93818 2.69139,-7.40731 8.07419,-7.40738 l 15.675814,0 0,16.33972 -6.6507,0 0,9.97315 18.62137,0 c 5.44653,4e-5 8.16982,2.6924 8.16986,8.07709 z m -26.79123,8.16986 -9.025114,0 c -5.3828,0 -8.074194,-2.72329 -8.07419,-8.16986 l 0,-16.24405 17.099304,0 z" />
  <path
     inkscape:connector-curvature="0"
     style="font-size:95px;font-style:normal;font-variant:normal;font-weight:normal;font-stretch:normal;text-align:center;line-height:125%;letter-spacing:0px;word-spacing:0px;text-anchor:middle;fill:none;stroke:#000000;stroke-width:0.09;stroke-miterlimit:4;stroke-opacity:1;stroke-dasharray:none;font-family:Stencil Camera;-inkscape-font-specification:Stencil Camera"
     id="path3787"
     d="m 178.1036,915.09428 c -5e-5,5.4466 -2.66052,8.16989 -7.98142,8.16986 l -14.15374,0 0,-16.4354 5.03296,0 0,-8.7381 -12.73026,0 0,-16.33972 21.85104,0 c 5.3209,7e-5 7.98137,2.50109 7.98142,7.50305 z m -25.17639,37.7153 -17.09931,0 0,-71.05866 9.40491,0 0,19.37805 7.6944,0 z" />
  <path
     inkscape:connector-curvature="0"
     style="font-size:95px;font-style:normal;font-variant:normal;font-weight:normal;font-stretch:normal;text-align:center;line-height:125%;letter-spacing:0px;word-spacing:0px;text-anchor:middle;fill:none;stroke:#000000;stroke-width:0.09;stroke-miterlimit:4;stroke-opacity:1;stroke-dasharray:none;font-family:Stencil Camera;-inkscape-font-specification:Stencil Camera"
     id="path3789"
     d="m 201.35494,952.80958 -17.0993,0 0,-71.05866 17.0993,0 z" />
  <path
     inkscape:connector-curvature="0"
     style="font-size:95px;font-style:normal;font-variant:normal;font-weight:normal;font-stretch:normal;text-align:center;line-height:125%;letter-spacing:0px;word-spacing:0px;text-anchor:middle;fill:none;stroke:#000000;stroke-width:0.09;stroke-miterlimit:4;stroke-opacity:1;stroke-dasharray:none;font-family:Stencil Camera;-inkscape-font-specification:Stencil Camera"
     id="path3791"
     d="m 246.00506,898.09064 -37.99942,0 0,-16.33972 37.99942,0 z m -10.44861,54.71894 -17.1022,0 0,-51.68061 17.1022,0 z" />
  <path
     inkscape:connector-curvature="0"
     style="font-size:95px;font-style:normal;font-variant:normal;font-weight:normal;font-stretch:normal;text-align:center;line-height:125%;letter-spacing:0px;word-spacing:0px;text-anchor:middle;fill:none;stroke:#000000;stroke-width:0.09;stroke-miterlimit:4;stroke-opacity:1;stroke-dasharray:none;font-family:Stencil Camera;-inkscape-font-specification:Stencil Camera"
     id="path3793"
     d="m 269.17812,881.75092 -4.84451,16.33972 -12.53891,0 0,-16.33972 z m 21.47126,0 -14.82056,50.91812 -18.33435,0 14.91623,-50.91812 z m -0.57114,71.05866 -38.09509,0 4.75174,-17.09931 33.34335,0 z" />
  <path
     inkscape:connector-curvature="0"
     style="font-size:95px;font-style:normal;font-variant:normal;font-weight:normal;font-stretch:normal;text-align:center;line-height:125%;letter-spacing:0px;word-spacing:0px;text-anchor:middle;fill:none;stroke:#000000;stroke-width:0.09;stroke-miterlimit:4;stroke-opacity:1;stroke-dasharray:none;font-family:Stencil Camera;-inkscape-font-specification:Stencil Camera"
     id="path3795"
     d="m 332.31335,898.09064 -23.08609,0 0,-16.33972 23.08609,0 z m 0,27.92771 -17.38633,0 0,26.79123 -17.0993,0 0,-71.05866 8.36121,0 0,19.37805 8.73809,0 0,7.98142 17.38633,0 z m 0,26.79123 -14.3451,0 0,-17.09931 14.3451,0 z" />
  <path
     inkscape:connector-curvature="0"
     style="font-size:95px;font-style:normal;font-variant:normal;font-weight:normal;font-stretch:normal;text-align:center;line-height:125%;letter-spacing:0px;word-spacing:0px;text-anchor:middle;fill:none;stroke:#000000;stroke-width:0.09;stroke-miterlimit:4;stroke-opacity:1;stroke-dasharray:none;font-family:Stencil Camera;-inkscape-font-specification:Stencil Camera"
     id="path3797"
     d="m 355.91549,952.80958 -17.09931,0 0,-71.05866 17.09931,0 z m 19.76074,0 -16.71951,0 0,-17.09931 16.71951,0 z" />
  <path
     inkscape:connector-curvature="0"
     style="font-size:95px;font-style:normal;font-variant:normal;font-weight:normal;font-stretch:normal;text-align:center;line-height:125%;letter-spacing:0px;word-spacing:0px;text-anchor:middle;fill:none;stroke:#000000;stroke-width:0.09;stroke-miterlimit:4;stroke-opacity:1;stroke-dasharray:none;font-family:Stencil Camera;-inkscape-font-specification:Stencil Camera"
     id="path3799"
     d="m 420.16689,898.09064 -27.45514,0 0,-16.33972 27.45514,0 z m 2.0874,46.64475 c -4e-5,5.38279 -2.65954,8.07419 -7.97851,8.07419 l -13.01437,0 0,-17.09931 3.89358,0 0,-8.83667 -3.89358,0 0,-17.57477 20.99288,0 z m -24.03411,8.07419 -9.02512,0 c -5.3828,0 -8.07419,-2.6914 -8.07419,-8.07419 l 0,-54.91028 c 0,-5.38272 2.84988,-8.07412 8.54965,-8.07419 l 0,19.37805 8.54966,0 z" />
  <path
     inkscape:connector-curvature="0"
     style="font-size:95px;font-style:normal;font-variant:normal;font-weight:normal;font-stretch:normal;text-align:center;line-height:125%;letter-spacing:0px;word-spacing:0px;text-anchor:middle;fill:none;stroke:#000000;stroke-width:0.09;stroke-miterlimit:4;stroke-opacity:1;stroke-dasharray:none;font-family:Stencil Camera;-inkscape-font-specification:Stencil Camera"
     id="path3801"
     d="m 463.86608,898.09064 -23.08609,0 0,-16.33972 23.08609,0 z m 0,27.92771 -17.38632,0 0,26.79123 -17.09931,0 0,-71.05866 8.36121,0 0,19.37805 8.7381,0 0,7.98142 17.38632,0 z m 0,26.79123 -14.34509,0 0,-17.09931 14.34509,0 z" />
  <path
     inkscape:connector-curvature="0"
     style="font-size:95px;font-style:normal;font-variant:normal;font-weight:normal;font-stretch:normal;text-align:center;line-height:125%;letter-spacing:0px;word-spacing:0px;text-anchor:middle;fill:none;stroke:#000000;stroke-width:0.09;stroke-miterlimit:4;stroke-opacity:1;stroke-dasharray:none;font-family:Stencil Camera;-inkscape-font-specification:Stencil Camera"
     id="path3803"
     d="m 514.25945,905.02546 -17.1022,0 0,-23.27454 8.93234,0 c 5.44653,7e-5 8.16981,2.4692 8.16986,7.40738 z m 0,39.61426 c -5e-5,5.44657 -2.72333,8.16986 -8.16986,8.16986 l -15.58014,0 0,-17.09931 6.6478,0 0,-10.35583 -18.71414,0 c -5.3828,3e-5 -8.07419,-3.07116 -8.07419,-9.21356 l 0,-26.98258 c 0,-4.93818 2.69139,-7.40731 8.07419,-7.40738 l 15.67581,0 0,16.33972 -6.6507,0 0,9.97315 18.62137,0 c 5.44653,4e-5 8.16981,2.6924 8.16986,8.07709 z m -26.79123,8.16986 -9.02511,0 c -5.3828,0 -8.07419,-2.72329 -8.07419,-8.16986 l 0,-16.24405 17.0993,0 z" />
  <path
     inkscape:connector-curvature="0"
     style="font-size:95px;font-style:normal;font-variant:normal;font-weight:normal;font-stretch:normal;text-align:center;line-height:125%;letter-spacing:0px;word-spacing:0px;text-anchor:middle;fill:none;stroke:#000000;stroke-width:0.09;stroke-miterlimit:4;stroke-opacity:1;stroke-dasharray:none;font-family:Stencil Camera;-inkscape-font-specification:Stencil Camera"
     id="path3805"
     d="m 555.89733,898.09064 -23.08609,0 0,-16.33972 23.08609,0 z m 0,27.92771 -17.38632,0 0,26.79123 -17.09931,0 0,-71.05866 8.36121,0 0,19.37805 8.7381,0 0,7.98142 17.38632,0 z m 0,26.79123 -14.34509,0 0,-17.09931 14.34509,0 z" />
  <path
     inkscape:connector-curvature="0"
     style="font-size:95px;font-style:normal;font-variant:normal;font-weight:normal;font-stretch:normal;text-align:center;line-height:125%;letter-spacing:0px;word-spacing:0px;text-anchor:middle;fill:none;stroke:#000000;stroke-width:0.09;stroke-miterlimit:4;stroke-opacity:1;stroke-dasharray:none;font-family:Stencil Camera;-inkscape-font-specification:Stencil Camera"
     id="path3807"
     d="m 600.39959,898.09064 -37.99942,0 0,-16.33972 37.99942,0 z m -10.44861,54.71894 -17.1022,0 0,-51.68061 17.1022,0 z" />
  <path
     inkscape:connector-curvature="0"
     style="font-size:95px;font-style:normal;font-variant:normal;font-weight:normal;font-stretch:normal;text-align:center;line-height:125%;letter-spacing:0px;word-spacing:0px;text-anchor:middle;fill:none;stroke:#000000;stroke-width:0.09;stroke-miterlimit:4;stroke-opacity:1;stroke-dasharray:none;font-family:Stencil Camera;-inkscape-font-specification:Stencil Camera"
     id="path3809"
     d="m 623.57265,881.75092 -4.84451,16.33972 -12.53891,0 0,-16.33972 z m 21.47126,0 -14.82056,50.91812 -18.33435,0 14.91623,-50.91812 z m -0.57114,71.05866 -38.09509,0 4.75174,-17.09931 33.34335,0 z" />
  <path
     inkscape:connector-curvature="0"
     style="font-size:95px;font-style:normal;font-variant:normal;font-weight:normal;font-stretch:normal;text-align:center;line-height:125%;letter-spacing:0px;word-spacing:0px;text-anchor:middle;fill:none;stroke:#000000;stroke-width:0.09;stroke-miterlimit:4;stroke-opacity:1;stroke-dasharray:none;font-family:Stencil Camera;-inkscape-font-specification:Stencil Camera"
     id="path3811"
     d="m 669.89269,881.75092 -2.47009,50.91812 -13.9653,0 -2.56577,-50.91812 z m -2.47009,71.05866 -13.9653,0 0,-17.09931 13.9653,0 z" />
  <path
     inkscape:connector-curvature="0"
     style="font-size:95px;font-style:normal;font-variant:normal;font-weight:normal;font-stretch:normal;text-align:center;line-height:125%;letter-spacing:0px;word-spacing:0px;text-anchor:middle;fill:none;stroke:#000000;stroke-width:0.09;stroke-miterlimit:4;stroke-opacity:1;stroke-dasharray:none;font-family:Stencil Camera;-inkscape-font-specification:Stencil Camera"
     id="path3813"
     d="m 66.627612,988.62546 -17.102203,0 0,-23.27454 8.932342,0 c 5.44653,7e-5 8.169814,2.4692 8.169861,7.40738 z m 0,39.61424 c -4.7e-5,5.4466 -2.723331,8.1699 -8.169861,8.1699 l -15.580139,0 0,-17.0993 6.647797,0 0,-10.3559 -18.714142,0 c -5.382798,1e-4 -8.074192,-3.0711 -8.074188,-9.21352 l 0,-26.98258 c -4e-6,-4.93818 2.69139,-7.40731 8.074188,-7.40738 l 15.675812,0 0,16.33972 -6.650696,0 0,9.97315 18.621368,0 c 5.44653,4e-5 8.169814,2.6924 8.169861,8.07709 z m -26.791229,8.1699 -9.025116,0 c -5.382798,0 -8.074192,-2.7233 -8.074188,-8.1699 l 0,-16.244 17.099304,0 z" />
  <path
     inkscape:connector-curvature="0"
     style="font-size:95px;font-style:normal;font-variant:normal;font-weight:normal;font-stretch:normal;text-align:center;line-height:125%;letter-spacing:0px;word-spacing:0px;text-anchor:middle;fill:none;stroke:#000000;stroke-width:0.09;stroke-miterlimit:4;stroke-opacity:1;stroke-dasharray:none;font-family:Stencil Camera;-inkscape-font-specification:Stencil Camera"
     id="path3815"
     d="m 111.01971,981.69064 -37.999428,0 0,-16.33972 37.999428,0 z m -10.44861,54.71896 -17.10221,0 0,-51.68063 17.10221,0 z" />
  <path
     inkscape:connector-curvature="0"
     style="font-size:95px;font-style:normal;font-variant:normal;font-weight:normal;font-stretch:normal;text-align:center;line-height:125%;letter-spacing:0px;word-spacing:0px;text-anchor:middle;fill:none;stroke:#000000;stroke-width:0.09;stroke-miterlimit:4;stroke-opacity:1;stroke-dasharray:none;font-family:Stencil Camera;-inkscape-font-specification:Stencil Camera"
     id="path3817"
     d="m 174.09405,1036.4096 -17.4791,0 -11.59088,-42.18005 3.134,-15.58014 -8.7381,0 2.84989,-13.29849 11.39953,0 z m -24.7937,-13.2057 -15.29602,0 -3.5167,13.2057 -17.57477,0 19.19251,-71.05868 7.12326,0 -3.80081,16.33972 8.83667,0 -6.07956,25.64896 6.93481,0 z" />
  <path
     inkscape:connector-curvature="0"
     style="font-size:95px;font-style:normal;font-variant:normal;font-weight:normal;font-stretch:normal;text-align:center;line-height:125%;letter-spacing:0px;word-spacing:0px;text-anchor:middle;fill:none;stroke:#000000;stroke-width:0.09;stroke-miterlimit:4;stroke-opacity:1;stroke-dasharray:none;font-family:Stencil Camera;-inkscape-font-specification:Stencil Camera"
     id="path3819"
     d="m 238.21123,1036.4096 -17.47909,0 -11.59088,-42.18005 3.134,-15.58014 -8.7381,0 2.84989,-13.29849 11.39953,0 z m -24.7937,-13.2057 -15.29602,0 -3.51669,13.2057 -17.57477,0 19.19251,-71.05868 7.12326,0 -3.80082,16.33972 8.83667,0 -6.07955,25.64896 6.93481,0 z" />
  <path
     inkscape:connector-curvature="0"
     style="font-size:95px;font-style:normal;font-variant:normal;font-weight:normal;font-stretch:normal;text-align:center;line-height:125%;letter-spacing:0px;word-spacing:0px;text-anchor:middle;fill:none;stroke:#000000;stroke-width:0.09;stroke-miterlimit:4;stroke-opacity:1;stroke-dasharray:none;font-family:Stencil Camera;-inkscape-font-specification:Stencil Camera"
     id="path3821"
     d="m 275.04314,981.69064 -37.99942,0 0,-16.33972 37.99942,0 z m -10.4486,54.71896 -17.10221,0 0,-51.68063 17.10221,0 z" />
  <path
     inkscape:connector-curvature="0"
     style="font-size:95px;font-style:normal;font-variant:normal;font-weight:normal;font-stretch:normal;text-align:center;line-height:125%;letter-spacing:0px;word-spacing:0px;text-anchor:middle;fill:none;stroke:#000000;stroke-width:0.09;stroke-miterlimit:4;stroke-opacity:1;stroke-dasharray:none;font-family:Stencil Camera;-inkscape-font-specification:Stencil Camera"
     id="path3823"
     d="m 324.72332,988.62546 -17.1022,0 0,-23.27454 8.93234,0 c 5.44653,7e-5 8.16981,2.4692 8.16986,7.40738 z m 0,39.61424 c -5e-5,5.4466 -2.72333,8.1699 -8.16986,8.1699 l -15.58014,0 0,-17.0993 6.6478,0 0,-10.3559 -18.71415,0 c -5.38279,1e-4 -8.07419,-3.0711 -8.07418,-9.21352 l 0,-26.98258 c -10e-6,-4.93818 2.69139,-7.40731 8.07418,-7.40738 l 15.67582,0 0,16.33972 -6.6507,0 0,9.97315 18.62137,0 c 5.44653,4e-5 8.16981,2.6924 8.16986,8.07709 z m -26.79123,8.1699 -9.02512,0 c -5.38279,0 -8.07419,-2.7233 -8.07418,-8.1699 l 0,-16.244 17.0993,0 z" />
  <path
     inkscape:connector-curvature="0"
     style="font-size:95px;font-style:normal;font-variant:normal;font-weight:normal;font-stretch:normal;text-align:center;line-height:125%;letter-spacing:0px;word-spacing:0px;text-anchor:middle;fill:none;stroke:#000000;stroke-width:0.09;stroke-miterlimit:4;stroke-opacity:1;stroke-dasharray:none;font-family:Stencil Camera;-inkscape-font-specification:Stencil Camera"
     id="path3825"
     d="m 375.00652,988.62546 -17.1022,0 0,-23.27454 8.93234,0 c 5.44653,7e-5 8.16982,2.4692 8.16986,7.40738 z m 0,39.61424 c -4e-5,5.4466 -2.72333,8.1699 -8.16986,8.1699 l -15.58014,0 0,-17.0993 6.6478,0 0,-10.3559 -18.71414,0 c -5.3828,1e-4 -8.07419,-3.0711 -8.07419,-9.21352 l 0,-26.98258 c 0,-4.93818 2.69139,-7.40731 8.07419,-7.40738 l 15.67581,0 0,16.33972 -6.6507,0 0,9.97315 18.62137,0 c 5.44653,4e-5 8.16982,2.6924 8.16986,8.07709 z m -26.79123,8.1699 -9.02511,0 c -5.3828,0 -8.07419,-2.7233 -8.07419,-8.1699 l 0,-16.244 17.0993,0 z" />
  <path
     inkscape:connector-curvature="0"
     style="font-size:95px;font-style:normal;font-variant:normal;font-weight:normal;font-stretch:normal;text-align:center;line-height:125%;letter-spacing:0px;word-spacing:0px;text-anchor:middle;fill:none;stroke:#000000;stroke-width:0.09;stroke-miterlimit:4;stroke-opacity:1;stroke-dasharray:none;font-family:Stencil Camera;-inkscape-font-specification:Stencil Camera"
     id="path3827"
     d="m 423.38787,993.3743 -17.0993,0 0,-28.02338 9.02511,0 c 5.38275,7e-5 8.07414,2.69147 8.07419,8.07419 z m -20.13763,-11.68366 -4.75174,0 0,54.71896 -9.02512,0 c -5.3828,0 -8.07419,-2.6914 -8.07419,-8.0742 l 0,-54.91029 c 0,-2.85078 0.61752,-4.90919 1.85257,-6.17523 1.23504,-1.2659 3.30891,-1.89889 6.22162,-1.89896 l 13.77686,0 z m 20.13763,46.64476 c -5e-5,5.3828 -2.69144,8.0742 -8.07419,8.0742 l -13.77395,0 0,-17.0993 4.74884,0 0,-11.1154 17.0993,0 z" />
  <path
     inkscape:connector-curvature="0"
     style="font-size:95px;font-style:normal;font-variant:normal;font-weight:normal;font-stretch:normal;text-align:center;line-height:125%;letter-spacing:0px;word-spacing:0px;text-anchor:middle;fill:none;stroke:#000000;stroke-width:0.09;stroke-miterlimit:4;stroke-opacity:1;stroke-dasharray:none;font-family:Stencil Camera;-inkscape-font-specification:Stencil Camera"
     id="path3829"
     d="m 470.67623,1036.4096 -17.0993,0 0,-27.0754 -10.92408,0 0,-17.09928 10.92408,0 0,-26.884 17.0993,0 z m -23.75,0 -17.0993,0 0,-71.05868 17.0993,0 0,23.84277 -7.31461,0 0,23.18181 7.31461,0 z" />
  <path
     inkscape:connector-curvature="0"
     style="font-size:95px;font-style:normal;font-variant:normal;font-weight:normal;font-stretch:normal;text-align:center;line-height:125%;letter-spacing:0px;word-spacing:0px;text-anchor:middle;fill:none;stroke:#000000;stroke-width:0.09;stroke-miterlimit:4;stroke-opacity:1;stroke-dasharray:none;font-family:Stencil Camera;-inkscape-font-specification:Stencil Camera"
     id="path3831"
     d="m 519.41128,1028.3354 c -5e-5,2.8489 -0.72822,4.9068 -2.18453,6.1738 -1.45639,1.2669 -3.98978,1.9004 -7.60017,1.9004 l 0,-20.1406 -7.31461,0 0,-50.91808 17.09931,0 z m -12.82593,8.0742 -21.08856,0 c -5.44658,0 -8.16987,-2.6914 -8.16986,-8.0742 l 0,-62.98448 17.0993,0 0,53.95938 12.15912,0 z" />
  <path
     inkscape:connector-curvature="0"
     style="font-size:95px;font-style:normal;font-variant:normal;font-weight:normal;font-stretch:normal;text-align:center;line-height:125%;letter-spacing:0px;word-spacing:0px;text-anchor:middle;fill:none;stroke:#000000;stroke-width:0.09;stroke-miterlimit:4;stroke-opacity:1;stroke-dasharray:none;font-family:Stencil Camera;-inkscape-font-specification:Stencil Camera"
     id="path3833"
     d="m 563.75408,981.69064 -37.99942,0 0,-16.33972 37.99942,0 z m -10.44861,54.71896 -17.1022,0 0,-51.68063 17.1022,0 z" />
  <path
     inkscape:connector-curvature="0"
     style="font-size:95px;font-style:normal;font-variant:normal;font-weight:normal;font-stretch:normal;text-align:center;line-height:125%;letter-spacing:0px;word-spacing:0px;text-anchor:middle;fill:none;stroke:#000000;stroke-width:0.09;stroke-miterlimit:4;stroke-opacity:1;stroke-dasharray:none;font-family:Stencil Camera;-inkscape-font-specification:Stencil Camera"
     id="path3835"
     d="m 586.92715,965.35092 -4.84452,16.33972 -12.53891,0 0,-16.33972 z m 21.47125,0 -14.82056,50.91808 -18.33435,0 14.91623,-50.91808 z m -0.57114,71.05868 -38.09509,0 4.75174,-17.0993 33.34335,0 z" />
  <path
     inkscape:connector-curvature="0"
     style="font-size:95px;font-style:normal;font-variant:normal;font-weight:normal;font-stretch:normal;text-align:center;line-height:125%;letter-spacing:0px;word-spacing:0px;text-anchor:middle;fill:none;stroke:#000000;stroke-width:0.09;stroke-miterlimit:4;stroke-opacity:1;stroke-dasharray:none;font-family:Stencil Camera;-inkscape-font-specification:Stencil Camera"
     id="path3837"
     d="m 628.68679,1036.4096 -13.86963,0 0,-17.0993 13.86963,0 z" />
  <path
     inkscape:connector-curvature="0"
     style="font-size:95px;font-style:normal;font-variant:normal;font-weight:normal;font-stretch:normal;text-align:center;line-height:125%;letter-spacing:0px;word-spacing:0px;text-anchor:middle;fill:none;stroke:#000000;stroke-width:0.09;stroke-miterlimit:4;stroke-opacity:1;stroke-dasharray:none;font-family:Stencil Camera;-inkscape-font-specification:Stencil Camera"
     id="path3839"
     d="m 692.14092,1036.4096 -17.47909,0 -11.59089,-42.18005 3.13401,-15.58014 -8.7381,0 2.84988,-13.29849 11.39954,0 z m -24.7937,-13.2057 -15.29602,0 -3.51669,13.2057 -17.57477,0 19.1925,-71.05868 7.12326,0 -3.80081,16.33972 8.83667,0 -6.07956,25.64896 6.93482,0 z" />
  <path
     inkscape:connector-curvature="0"
     style="font-size:95px;font-style:normal;font-variant:normal;font-weight:normal;font-stretch:normal;text-align:center;line-height:125%;letter-spacing:0px;word-spacing:0px;text-anchor:middle;fill:none;stroke:#000000;stroke-width:0.09;stroke-miterlimit:4;stroke-opacity:1;stroke-dasharray:none;font-family:Stencil Camera;-inkscape-font-specification:Stencil Camera"
     id="path3841"
     d="m 732.97283,981.69064 -37.99942,0 0,-16.33972 37.99942,0 z m -10.44861,54.71896 -17.1022,0 0,-51.68063 17.1022,0 z" />
  <flowRoot
     id="flowRoot3075"
     xml:space="preserve"
     style="font-size:56px;font-style:normal;font-variant:normal;font-weight:normal;font-stretch:normal;text-align:center;line-height:125%;letter-spacing:0px;word-spacing:0px;text-anchor:middle;fill:none;stroke:#000000;stroke-width:0.09;stroke-miterlimit:4;stroke-opacity:1;stroke-dasharray:none;font-family:Stencil Camera;-inkscape-font-specification:Stencil Camera"
     transform="translate(-10.751874,91.90019)"><flowRegion
       id="flowRegion3077"><rect
         width="453.66574"
         height="129.61879"
         x="422.37845"
         y="752.22528"
         id="rect3079"
         style="fill:none;stroke:#000000;stroke-width:0.09;stroke-miterlimit:4;stroke-opacity:1;stroke-dasharray:none" /></flowRegion><flowPara
       id="flowPara3081" /></flowRoot>  <path
     d="m 220.17488,773.24588 c 0.6582,-1.10778 2.34565,-2.01414 3.74987,-2.01414 1.40424,0 3.62994,-1.34957 4.94599,-2.99903 1.31608,-1.64946 3.3001,-2.41578 4.40899,-1.70294 1.10887,0.71285 1.47972,0.3933 0.82411,-0.7101 -1.32469,-2.22951 7.15289,-11.08542 18.98895,-19.83636 4.25996,-3.14957 10.95397,-8.85115 14.87558,-12.67016 l 7.13019,-6.94367 3.26939,11.8569 c 1.79817,6.5213 3.92608,12.76326 4.72872,13.87104 0.80261,1.10777 1.923,4.73322 2.48973,8.05655 0.56673,3.32333 1.64919,8.08174 2.40545,10.57424 l 1.37504,4.53181 -35.19438,0 c -22.96982,0 -34.77868,-0.69959 -33.99763,-2.01414 z m 147.08521,0.12991 c 1.44095,-2.4252 -0.92666,-33.18556 -2.79651,-36.3326 -2.39263,-4.02691 -13.76503,-3.1058 -17.22201,1.39488 -2.87863,3.7477 -3.66586,3.85701 -9.44295,1.31116 -3.46639,-1.52758 -11.40439,-8.08425 -17.64003,-14.57041 -10.82697,-11.26194 -11.19712,-11.97845 -8.2201,-15.91168 4.46914,-5.90457 21.67991,-8.14192 25.52135,-3.31767 1.52272,1.91229 8.84349,6.50674 16.2684,10.20988 12.70096,6.33459 14.70613,6.73016 33.88608,6.68494 21.07486,-0.0497 22.88414,-0.36111 50.39966,-8.67548 28.49308,-8.60976 38.58399,-13.48317 44.93219,-21.7 l 5.84502,-7.56557 6.56114,3.25449 c 4.53857,2.25124 6.56112,4.62867 6.56112,7.71236 0,4.04663 1.26519,4.59005 13.71399,5.89045 7.54269,0.78794 20.19502,0.80087 28.11627,0.0288 14.89551,-1.45192 24.41041,0.0592 45.79717,7.27384 6.12794,2.06717 12.33452,3.7585 13.79238,3.7585 4.4516,0 20.66257,8.14271 34.03268,17.09445 11.38983,7.62589 39.19899,34.89569 43.23394,42.3954 1.23568,2.29672 0.31672,2.94848 -4.15726,2.94848 -4.65285,0 -8.25647,-2.82245 -18.97561,-14.86223 -12.50185,-14.0421 -27.1536,-25.27456 -37.00641,-28.37019 -3.2856,-1.03228 -5.36866,-0.19053 -8.16506,3.29957 -2.06476,2.57697 -3.78312,5.53934 -3.81855,6.58305 -0.0354,1.04369 -3.33201,8.94348 -7.32573,17.55508 l -7.2613,15.65746 -113.89114,0.0963 c -72.53779,0.0612 -113.4727,-0.60793 -112.73873,-1.84322 z m 41.22459,-124.5879 c -8.27047,-1.74271 0.8244,-8.32714 11.61809,-8.41117 5.90287,-0.0459 8.22947,0.75649 8.22947,2.83829 0,1.59628 -0.84419,3.44504 -1.87599,4.10836 -2.34902,1.51008 -13.4588,2.41543 -17.97157,1.46452 z M 381.8599,621.01347 c -9.05242,-1.32027 -19.5087,-3.24045 -23.23617,-4.26706 -7.0599,-1.94441 -8.86747,-6.05988 -3.8727,-8.81742 19.81583,-10.94002 39.85651,-17.08558 52.28139,-16.0323 6.6768,0.56599 12.74643,0.52331 28.1548,-0.19799 7.65626,-0.3584 28.66804,5.20427 33.18058,8.78424 1.25223,0.99344 3.77589,1.52448 5.60816,1.18011 5.08077,-0.95495 5.37228,3.39761 0.38892,5.80702 -13.03412,6.30192 -37.37641,12.0482 -58.6189,13.83773 -7.45493,0.62802 -14.42579,1.35881 -15.49078,1.624 -1.06499,0.26518 -9.34287,-0.59808 -18.3953,-1.91837 z m 23.61602,-39.71027 c -3.40388,-3.65301 -6.18889,-7.58616 -6.18889,-8.74032 0,-2.36794 -8.32943,-6.77337 -12.80656,-6.77337 -5.52949,0 -15.35252,-9.83831 -18.99408,-19.02359 -2.00048,-5.0459 -4.74986,-9.17436 -6.10975,-9.17436 -1.35988,0 -5.58188,5.32419 -9.38221,11.83156 -3.80033,6.50734 -8.36473,13.07847 -10.14313,14.60251 -2.93101,2.51179 -3.10189,2.20582 -1.82702,-3.27147 1.9122,-8.21547 31.43474,-52.77996 33.52482,-50.60592 0.56454,0.58722 -0.38433,2.53512 -2.10859,4.32867 -2.13155,2.21716 -3.13504,6.8181 -3.13504,14.37378 l 0,11.1128 11.134,-0.96989 c 6.1237,-0.53345 13.58262,-1.63641 16.57538,-2.45101 4.54157,-1.23616 5.61787,-0.77913 6.50859,2.76385 0.91266,3.63028 2.44009,4.21275 10.54864,4.02274 8.09186,-0.18954 10.72464,-1.36046 17.96392,-7.98873 7.30443,-6.68791 8.81432,-7.35064 10.87184,-4.77186 3.70398,4.64231 11.59692,3.87078 11.59692,-1.13361 0,-5.36972 -4.35029,-14.01558 -9.48349,-18.8477 -3.96998,-3.73711 -5.89713,-12.67611 -2.22372,-10.31461 3.97561,2.55578 32.31171,40.77418 35.63046,48.05669 4.71684,10.35044 2.27048,12.03722 -4.87275,3.35978 -15.87169,-19.28065 -17.22032,-19.70386 -19.45229,-6.10419 -1.75993,10.72338 -5.64126,15.39578 -14.17205,17.06047 -7.52604,1.46861 -18.34407,11.68692 -18.34407,17.32714 0,3.08127 -5.03473,7.97248 -8.20641,7.97248 -0.3936,0 -3.50063,-2.98882 -6.90452,-6.64184 z M 464.016,422.01444 c 2.33613,-0.31025 4.72736,-0.59725 7.15306,-0.86008 2.42569,-0.26283 4.88584,-0.50149 7.35979,-0.71506 2.47395,-0.21357 4.9617,-0.40204 7.44259,-0.5645 2.48088,-0.16246 4.9549,-0.2989 7.40141,-0.4084 2.4465,-0.1095 4.86548,-0.19206 7.23628,-0.24674 2.37081,-0.0547 4.69343,-0.0815 6.94721,-0.0796 2.25378,0.002 4.43872,0.0327 6.53416,0.0932 2.09545,0.0605 4.10139,0.15067 5.99718,0.2715 1.89578,0.12084 3.68141,0.27231 5.33622,0.45535 1.65481,0.18304 3.1788,0.39765 4.55132,0.64474 1.37251,0.2471 2.59355,0.52669 3.64245,0.83969 1.0489,0.313 1.92567,0.65941 2.60964,1.04017 2.64011,1.46971 4.53229,5.14458 5.40018,10.48795 1.48419,9.13785 -1.22959,27.63323 -5.66897,38.61801 l -3.75829,8.41561 -2.24192,-16.93795 c -1.39035,-10.50425 -3.72641,-22.10663 -5.54078,-25.73943 -1.81438,-3.6328 -2.80337,-7.43904 -2.19776,-8.45832 1.94369,-3.27128 -12.87117,-5.08923 -37.97294,-4.65969 -2.6654,0.0456 -5.20676,0.11669 -7.62849,0.21619 -2.42174,0.0995 -4.72385,0.22742 -6.91078,0.3867 -2.18692,0.15928 -4.25865,0.34993 -6.21961,0.57489 -1.96096,0.22496 -3.81115,0.48423 -5.3972,0.84953 l -0.7232,-3.21292 c 2.03133,-0.36712 4.31233,-0.7006 6.64845,-1.01084 z m -18.97914,3.39479 c -1.81949,0.44138 -3.52189,0.90323 -5.08653,1.38463 -6.92244,2.12984 -16.7252,4.93615 -21.78391,6.23626 -8.99674,2.31221 -9.19765,2.53411 -9.19765,10.15864 0,7.15317 0.43831,7.79743 5.32495,7.82563 7.69946,0.0446 9.43493,1.77712 15.07995,15.05431 2.78904,6.55987 6.80477,14.45975 8.92385,17.55528 l 3.5e-4,-6e-5 c 2.11908,3.09553 2.56932,3.97198 4.09427,3.97198 4.06587,0 6.01707,-0.0416 -1.18268,-9.21408 -5.13936,-6.54757 -6.75218,-10.77402 -7.76516,-20.34883 -0.17088,-1.61512 -0.28854,-3.15763 -0.34854,-4.63045 -0.0604,-1.47283 -0.0627,-2.87597 -0.003,-4.21239 0.0597,-1.33642 0.1815,-2.60611 0.36978,-3.81202 0.18829,-1.2059 0.44308,-2.34803 0.76879,-3.42931 0.32572,-1.08129 0.72236,-2.10175 1.19436,-3.06431 0.47199,-0.96256 1.01934,-1.86724 1.64647,-2.71697 0.62713,-0.84974 1.33404,-1.64453 2.12516,-2.38733 0.79112,-0.7428 1.66644,-1.4336 2.6304,-2.07536 0.96396,-0.64176 2.01655,-1.23447 3.1622,-1.78108 1.14566,-0.5466 5.03602,-1.75422 6.1915,-2.20709 l -0.57745,-3.63854 c -1.81104,0.46879 -3.74763,0.88971 -5.56711,1.33109 z M 305.7189,460.97315 c -6.24575,-3.53794 -7.02141,-4.66749 -4.97041,-7.23808 1.33664,-1.67526 5.59659,-4.72618 9.46655,-6.77979 3.86997,-2.05362 8.17389,-5.15964 9.56428,-6.90228 4.80737,-6.02526 23.00441,-2.57532 33.12115,6.27936 l 6.01511,5.26472 -10.02283,6.01912 c -13.50277,8.10896 -32.21614,9.564 -43.17385,3.35695 z m 156.4322,-3.84953 c -17.49733,-7.37729 -3.01335,-22.25318 21.66693,-22.25318 4.93858,0 14.83771,7.25457 19.68617,14.42698 2.30658,3.41219 1.8831,4.07918 -4.29461,6.76408 -7.33937,3.18978 -30.4417,3.85191 -37.05849,1.06212 z m -174.5372,31.63387 c 0.63506,0.3691 1.30998,0.73975 2.01346,1.10663 0.70347,0.36688 1.4355,0.72998 2.18478,1.08397 0.74928,0.35398 1.51581,0.69885 2.28828,1.02925 0.77248,0.33041 1.5509,0.64636 2.32396,0.94251 0.77307,0.29615 1.54077,0.5725 2.29182,0.82372 0.75104,0.25121 1.48542,0.47728 2.19184,0.67288 11.25341,3.1159 45.8939,3.73218 59.20966,1.05347 4.54914,-0.91516 8.67848,-0.97838 9.17631,-0.14058 1.76187,2.96525 -4.31954,5.91424 -20.4681,9.92533 -8.98859,2.23266 -18.30342,4.63625 -20.69965,5.34134 -2.53302,0.74533 -4.35679,0.39733 -4.35679,-0.83135 l 0,-4.1e-4 c 0,-1.16232 1.96056,-2.7936 4.35679,-3.62501 3.1278,-1.08526 -0.79296,-2.24835 -13.89917,-4.12315 -2.57008,-0.36764 -5.04087,-0.78676 -7.40386,-1.25361 -2.36299,-0.46686 -4.61817,-0.98145 -6.75703,-1.54003 -2.13886,-0.55859 -4.16139,-1.16117 -6.05908,-1.80402 -1.89769,-0.64284 -3.67054,-1.32594 -5.31002,-2.04555 -1.63948,-0.71962 -3.1456,-1.47576 -4.50983,-2.26467 z m -0.66185,-61.23353 c 12.30498,-2.54596 25.81401,-3.59614 48.43551,-3.65192 3.50281,-0.009 6.65331,-0.008 9.5064,0.008 2.85309,0.0158 5.40878,0.0464 7.72196,0.0973 2.31319,0.0509 4.38387,0.12216 6.26697,0.21908 1.88309,0.0969 5.12539,0.4405 6.49047,0.62317 l -1.4749,3.56215 c -1.31674,-0.27955 -2.89938,-0.47987 -4.57081,-0.64881 -1.67142,-0.16893 -3.43165,-0.30649 -5.2848,-0.41396 -1.85316,-0.10747 -3.79925,-0.18486 -5.84243,-0.23346 -2.04317,-0.0486 -4.18343,-0.0684 -6.42492,-0.0608 -2.24148,0.008 -4.5842,0.0428 -7.03228,0.10412 -2.44809,0.0613 -5.00155,0.14883 -7.66453,0.26121 -3.93581,0.1661 -7.60917,0.36839 -11.03365,0.61022 -3.42448,0.24184 -6.60009,0.52322 -9.54039,0.84752 -2.94029,0.32431 -5.64528,0.69152 -8.12853,1.10502 -2.48324,0.4135 -4.1814,0.68595 -6.23558,1.19521 l -5.18849,-3.62406 m 85.29627,-1.61568 c 1.25172,0.29969 2.48058,0.64128 3.74149,1.03017 1.2609,0.38889 2.55384,0.82508 3.93374,1.31397 6.92245,2.45258 15.85385,4.98616 19.84757,5.63016 6.91717,1.11541 7.2613,1.53309 7.2613,8.81291 0,5.96272 -0.95737,8.10145 -4.35678,9.73295 -2.77862,1.33354 -6.0612,6.61189 -9.06205,14.57171 -5.39517,14.31069 -16.44498,29.10324 -20.2488,26.65789 -1.81018,-1.16369 -1.84988,-2.55859 2.63721,-7.37409 8.42581,-9.04248 14.20057,-28.59684 11.76922,-39.85271 -0.21962,-1.01675 -0.48244,-1.98781 -0.79259,-2.91448 -0.31016,-0.92667 -0.66764,-1.80895 -1.07661,-2.64814 -0.40898,-0.83919 -0.86943,-1.63529 -1.38551,-2.38961 -0.51608,-0.75431 -1.08778,-1.46684 -1.71926,-2.13887 -0.63148,-0.67204 -1.32274,-1.30359 -2.07791,-1.89596 -0.75517,-0.59236 -1.57426,-1.14553 -2.46141,-1.66082 -0.88716,-0.51529 -1.84237,-0.99269 -2.8698,-1.43351 -1.02743,-0.44082 -2.12706,-0.84505 -3.30305,-1.21399 -1.17599,-0.36895 -2.42834,-0.70261 -3.56755,-0.95718 l 1.2824,-3.814 c 1.07112,0.20708 1.19666,0.2439 2.44839,0.5436 z m -86.21931,7.10784 c -1.65055,0.61209 -3.1065,1.2772 -4.3814,1.99869 -1.27491,0.72148 -2.36877,1.49935 -3.29516,2.33696 -0.9264,0.83761 -1.68532,1.73497 -2.29034,2.69544 -2.83864,4.50635 -2.89511,6.87734 -0.55533,23.30345 0.29972,2.10411 0.57299,3.97409 0.83299,5.64453 0.26,1.67044 0.50673,3.14133 0.75338,4.44727 0.24665,1.30594 0.49322,2.44692 0.7529,3.45753 0.25968,1.01061 0.53246,1.89084 0.83153,2.6753 0.29907,0.78445 0.62443,1.47311 0.98927,2.10057 0.36483,0.62746 0.76915,1.19373 1.22612,1.73337 0.45698,0.53965 0.96661,1.05267 1.54209,1.57367 0.57549,0.521 1.21682,1.04997 1.93718,1.62149 l -3.74406,3.96514 c -1.17139,-0.77339 -2.09294,-1.65316 -2.85556,-2.55823 -0.76262,-0.90507 -1.36632,-1.83544 -1.80258,-2.78737 -1.2692,-2.76944 -4.17895,-10.17993 -6.46611,-16.46773 -2.28715,-6.28782 -5.39044,-11.92415 -6.8962,-12.52517 -1.93821,-0.77365 -2.73773,-4.61971 -2.73773,-13.16995 0,-9.8466 0.68642,-12.45931 3.71649,-14.14611 2.57827,-1.43527 3.9273,-1.41106 4.40483,0.0792 0.11648,0.36349 0.56869,0.60688 1.3653,0.72945 0.7966,0.12258 1.9376,0.12435 3.43166,0.005 1.49406,-0.11972 6.84118,-1.04845 9.05003,-1.41187 l 4.1907,4.69937"
     id="path3211"
     style="fill:none;stroke:#000000;stroke-width:0.09;stroke-miterlimit:4;stroke-opacity:1;stroke-dasharray:none"
     inkscape:connector-curvature="0" />
  <path
     d="m 444.10748,235.71347 c -0.42393,-1.55088 -0.89792,-3.09139 -1.49571,-4.58615 -0.59893,-1.50297 -1.37177,-2.93073 -2.01792,-4.41703 -0.62252,-1.89012 -1.45063,-3.68875 -2.41917,-5.42427 -0.9067,-1.94581 -7.75534,-12.77723 -8.84902,-14.57027 5.62861,1.6277 11.39727,4.49145 16.97552,6.95877 3.7472,1.65743 9.1834,5.28524 11.09789,5.28524 6.98715,0 39.51727,24.25266 56.28189,41.96069 39.13022,41.33219 65.17593,80.46658 74.62163,112.12099 10.58723,35.47991 13.42605,47.41548 18.68312,78.55144 6.91654,40.96439 7.35369,107.72027 0.83095,126.89079 -5.35025,15.72448 -24.06557,47.17433 -34.74038,58.37888 -13.26586,13.92415 -26.44962,25.20791 -29.45253,25.20791 -1.37347,0 -2.49721,1.25628 -2.49721,2.79171 0,1.53544 -2.83191,4.3207 -6.29313,6.18944 -3.46122,1.86875 -5.74512,3.46602 -8.4076,5.03049 -2.66247,1.56448 -6.66017,2.85786 -9.25401,2.87419 -2.59383,0.0161 -5.90907,-0.64694 -8.1077,1.48806 -3.4321,3.3328 -2.74518,2.46923 -7.36561,-0.12478 -4.62042,-2.59401 -9.15137,2.39951 3.42455,-7.88055 8.22067,-6.71992 12.76733,-11.88804 12.76733,-14.5124 0,-2.24172 1.76682,-6.56163 3.92627,-9.59978 2.15944,-3.03814 4.39631,-9.11939 4.97082,-13.51388 1.44316,-11.0389 8.68135,-35.18086 10.54785,-35.18086 0.84268,0 1.89181,1.1223 2.33138,2.49399 0.63133,1.97007 1.88552,1.97915 5.9704,0.0431 3.62796,-1.71943 5.17119,-1.78902 5.17119,-0.23324 0,1.55355 0.81336,1.51544 2.71621,-0.12729 2.0858,-1.8006 2.94917,-1.74096 3.71984,0.2569 0.55198,1.43097 1.07239,0.17886 1.15647,-2.78259 0.0864,-3.04028 -2.02953,-8.0822 -4.86012,-11.5813 -2.75717,-3.40833 -4.17589,-6.19697 -3.15274,-6.19697 1.02314,0 1.95269,-3.39886 2.06563,-7.55302 0.11289,-4.15416 0.36803,-10.27211 0.56681,-13.59544 1.1079,-18.52197 -2.32385,-25.05098 -5.04035,-9.58942 -0.73202,4.16641 -2.60388,9.63091 -4.1597,12.14337 -2.49855,4.03482 -2.48182,4.70658 0.14329,5.75438 3.98386,1.59016 3.7741,6.04658 -0.36233,7.69765 -2.51899,1.00546 -2.73333,1.71728 -0.87653,2.91096 1.92502,1.23751 1.80832,2.14075 -0.53836,4.16655 -1.64793,1.42275 -2.99621,4.74161 -2.99621,7.37539 0,2.63381 -0.65979,4.78874 -1.46622,4.78874 -0.80641,0 -1.14664,-4.17932 -0.75608,-9.28738 0.39058,-5.10804 -0.14813,-11.22598 -1.19721,-13.59544 -4.75505,-10.74018 -6.26371,-16.02872 -6.28354,-22.02655 -0.0461,-13.98105 -2.46931,-21.51083 -9.42029,-29.27316 -6.12028,-6.83466 -8.99765,-8.27821 -22.50813,-11.29203 -17.73179,-3.95549 -42.81251,-12.43955 -48.04609,-16.25258 -5.35965,-3.90487 -0.53371,-5.72577 7.69154,-2.90213 4.65014,1.59635 15.8827,2.10212 33.36414,1.50233 30.49595,-1.04633 40.61774,-1.36958 45.85504,-14.55373 1.31655,-3.31423 1.80979,-4.04544 2.53516,-5.93184 0.96894,-2.51983 6.04073,-23.14617 6.04073,-31.94013 0,-8.24359 -3.14287,-19.97764 -5.81011,-21.69232 -1.10449,-0.71002 -3.3098,-9.3842 -4.9007,-19.27594 -2.6399,-16.41401 -6.37206,-29.06762 -16.44035,-55.73977 -4.61067,-12.21428 -26.56041,-46.42551 -36.51299,-56.90974 -10.40008,-10.95568 -19.22176,-21.59519 -30.08482,-24.50453 0.33534,-9.38529 -4.10602,-18.25084 -7.14279,-26.21545 z m -28.84353,29.86867 c -3.73182,1.10286 -11.134,2.79128 -16.45895,3.71953 -10.99749,1.91711 -23.22578,6.24011 -33.58365,11.87266 -3.8938,2.11743 -11.94229,6.43286 -17.88552,9.58984 -5.94321,3.15699 -14.2211,8.11111 -18.3953,11.00917 -9.06193,6.29152 -27.92109,28.39313 -27.92109,32.72156 0,1.68375 -0.84878,3.60701 -1.88617,4.27392 -3.18119,2.04506 -22.33074,43.60697 -25.99915,56.42816 -4.12101,14.40307 -12.17899,32.68993 -14.80593,33.60076 -1.03196,0.35779 -2.1075,6.3807 -2.39011,13.38422 -0.42577,10.55077 -1.27288,13.32921 -4.94152,16.20766 -2.43523,1.91069 -5.3981,7.05442 -6.58415,11.43052 -1.89975,7.00947 -2.14017,14.88448 -1.46978,48.14205 0.0883,4.37759 1.15853,9.21019 2.37843,10.73915 2.30348,2.88703 2.55122,10.46007 1.56265,47.7682 -0.50321,18.9915 0.0945,24.43268 4.18557,38.10077 3.58595,11.98056 5.82597,16.35054 9.00902,17.57532 2.33,0.89655 4.79453,3.23801 5.47672,5.20325 0.6822,1.96521 2.98109,6.18318 5.10865,9.37324 l 3.86828,5.80012 -6.11973,12.53117 c -3.36586,6.89214 -6.11973,13.57997 -6.11973,14.86187 0,1.61955 -1.03395,1.73595 -3.38861,0.38142 -1.86373,-1.07211 -10.79513,-3.76084 -19.84756,-5.97497 -21.35464,-5.22312 -57.71249,-17.61653 -63.89947,-21.78161 -2.66248,-1.79238 -5.71223,-4.43429 -6.77722,-5.87089 -1.06499,-1.43663 -5.32076,-5.21398 -9.45728,-8.39415 -8.0274,-6.17148 -8.93885,-8.36249 -25.71074,-61.80554 -3.82416,-12.18555 -8.1499,-23.94335 -9.61275,-26.12845 -1.46286,-2.18508 -2.65974,-7.47135 -2.65974,-11.74723 0,-4.27589 -2.51817,-13.81762 -5.59594,-21.20385 -3.79423,-9.10562 -6.02246,-18.61742 -6.92066,-29.54261 -0.72859,-8.86222 -2.5672,-21.22895 -4.08579,-27.48161 -1.5186,-6.25267 -2.76108,-14.62851 -2.76108,-18.61298 0,-8.87917 8.23316,-34.29101 16.38871,-50.58411 3.327,-6.64666 11.71957,-23.43379 18.65016,-37.30472 15.85824,-31.73881 44.40251,-69.273 65.84743,-86.58585 4.68452,-3.7819 11.56708,-9.89449 15.29455,-13.58353 17.48895,-17.30862 74.01673,-46.74576 99.93548,-52.04193 12.03062,-2.4583 28.35747,-1.03537 53.16702,0.0411 8.3129,0.36069 15.69956,0.84157 22.47478,1.50014 6.77522,0.65856 14.33575,0.53447 19.42261,1.22191 2.36601,6.28035 6.65074,9.9285 10.82013,17.94602 1.13741,1.78658 2.16938,3.62833 3.08896,5.53685 0.9269,1.71383 1.67187,3.5051 2.30994,5.346 1.48905,2.9592 2.62748,5.98537 3.47471,8.94376 2.94728,6.02813 5.97173,17.99173 6.15931,18.60333 -1.71267,0.32344 -16.23718,2.68965 -23.34549,4.79036 z"
     id="path3243"
     style="fill:none;stroke:#000000;stroke-width:0.09;stroke-miterlimit:4;stroke-opacity:1;stroke-dasharray:none"
     inkscape:connector-curvature="0" />
</svg>
