<?xml version="1.0" encoding="utf-8"?>
<!-- Generator: Adobe Illustrator 19.1.0, SVG Export Plug-In . SVG Version: 6.00 Build 0)  -->
<svg version="1.1" id="Layer_1" xmlns="http://www.w3.org/2000/svg" xmlns:xlink="http://www.w3.org/1999/xlink" x="0px" y="0px"
	 viewBox="0 0 595.3 841.9" style="enable-background:new 0 0 595.3 841.9;" xml:space="preserve">
<style type="text/css">
	.st0{fill:none;stroke:#000000;stroke-miterlimit:10;}
</style>
<path id="path3211" inkscape:connector-curvature="0" class="st0" d="M150.8,642.2c0.6-0.9,2-1.7,3.2-1.7c1.2,0,3.1-1.2,4.2-2.6
	c1.1-1.4,2.8-2.1,3.8-1.5c0.9,0.6,1.3,0.3,0.7-0.6c-1.1-1.9,6.1-9.5,16.3-17c3.6-2.7,9.4-7.6,12.7-10.9l6.1-5.9l2.8,10.2
	c1.5,5.6,3.4,10.9,4,11.9c0.7,0.9,1.6,4.1,2.1,6.9c0.5,2.8,1.4,6.9,2.1,9.1l1.2,3.9h-30.1C160.2,643.9,150.1,643.3,150.8,642.2
	L150.8,642.2z M276.7,642.3c1.2-2.1-0.8-28.4-2.4-31.1c-2-3.4-11.8-2.7-14.7,1.2c-2.5,3.2-3.1,3.3-8.1,1.1c-3-1.3-9.8-6.9-15.1-12.5
	c-9.3-9.6-9.6-10.3-7-13.6c3.8-5.1,18.6-7,21.9-2.8c1.3,1.6,7.6,5.6,13.9,8.7c10.9,5.4,12.6,5.8,29,5.7c18,0,19.6-0.3,43.2-7.4
	c24.4-7.4,33-11.5,38.5-18.6l5-6.5l5.6,2.8c3.9,1.9,5.6,4,5.6,6.6c0,3.5,1.1,3.9,11.7,5c6.5,0.7,17.3,0.7,24.1,0
	c12.8-1.2,20.9,0.1,39.2,6.2c5.2,1.8,10.6,3.2,11.8,3.2c3.8,0,17.7,7,29.1,14.6c9.8,6.5,33.6,29.9,37,36.3c1.1,2,0.3,2.5-3.6,2.5
	c-4,0-7.1-2.4-16.2-12.7c-10.7-12-23.3-21.6-31.7-24.3c-2.8-0.9-4.6-0.2-7,2.8c-1.8,2.2-3.2,4.7-3.3,5.6s-2.9,7.7-6.3,15l-6.2,13.4
	l-97.5,0.1C311.2,644,276.1,643.4,276.7,642.3L276.7,642.3z M312,535.6c-7.1-1.5,0.7-7.1,9.9-7.2c5.1,0,7,0.6,7,2.4
	c0,1.4-0.7,3-1.6,3.5C325.4,535.7,315.9,536.5,312,535.6L312,535.6z M289.2,511.9c-7.8-1.1-16.7-2.8-19.9-3.7
	c-6-1.7-7.6-5.2-3.3-7.6c17-9.4,34.1-14.6,44.8-13.7c5.7,0.5,10.9,0.4,24.1-0.2c6.6-0.3,24.6,4.5,28.4,7.5c1.1,0.9,3.2,1.3,4.8,1
	c4.4-0.8,4.6,2.9,0.3,5c-11.2,5.4-32,10.3-50.2,11.9c-6.4,0.5-12.4,1.2-13.3,1.4C304.1,513.7,297,513,289.2,511.9L289.2,511.9z
	 M309.5,477.8c-2.9-3.1-5.3-6.5-5.3-7.5c0-2-7.1-5.8-11-5.8c-4.7,0-13.1-8.4-16.3-16.3c-1.7-4.3-4.1-7.9-5.2-7.9
	c-1.2,0-4.8,4.6-8,10.1c-3.3,5.6-7.2,11.2-8.7,12.5c-2.5,2.2-2.7,1.9-1.6-2.8c1.6-7,26.9-45.2,28.7-43.3c0.5,0.5-0.3,2.2-1.8,3.7
	c-1.8,1.9-2.7,5.8-2.7,12.3v9.5l9.5-0.8c5.2-0.5,11.6-1.4,14.2-2.1c3.9-1.1,4.8-0.7,5.6,2.4c0.8,3.1,2.1,3.6,9,3.4
	c6.9-0.2,9.2-1.2,15.4-6.8c6.3-5.7,7.5-6.3,9.3-4.1c3.2,4,9.9,3.3,9.9-1c0-4.6-3.7-12-8.1-16.1c-3.4-3.2-5.1-10.9-1.9-8.8
	c3.4,2.2,27.7,34.9,30.5,41.2c4,8.9,1.9,10.3-4.2,2.9c-13.6-16.5-14.7-16.9-16.7-5.2c-1.5,9.2-4.8,13.2-12.1,14.6
	c-6.4,1.3-15.7,10-15.7,14.8c0,2.6-4.3,6.8-7,6.8C315,483.5,312.4,481,309.5,477.8L309.5,477.8z M359.6,341.4c2-0.3,4-0.5,6.1-0.7
	s4.2-0.4,6.3-0.6s4.2-0.3,6.4-0.5c2.1-0.1,4.2-0.3,6.3-0.3c2.1-0.1,4.2-0.2,6.2-0.2c2,0,4-0.1,5.9-0.1c1.9,0,3.8,0,5.6,0.1
	c1.8,0.1,3.5,0.1,5.1,0.2c1.6,0.1,3.2,0.2,4.6,0.4c1.4,0.2,2.7,0.3,3.9,0.6c1.2,0.2,2.2,0.5,3.1,0.7c0.9,0.3,1.6,0.6,2.2,0.9
	c2.3,1.3,3.9,4.4,4.6,9c1.3,7.8-1.1,23.7-4.9,33.1l-3.2,7.2l-1.9-14.5c-1.2-9-3.2-18.9-4.7-22c-1.6-3.1-2.4-6.4-1.9-7.2
	c1.7-2.8-11-4.4-32.5-4c-2.3,0-4.5,0.1-6.5,0.2c-2.1,0.1-4,0.2-5.9,0.3c-1.9,0.1-3.6,0.3-5.3,0.5c-1.7,0.2-3.3,0.4-4.6,0.7l-0.6-2.8
	C355.6,342,357.6,341.7,359.6,341.4L359.6,341.4z M343.3,344.3c-1.6,0.4-3,0.8-4.4,1.2c-5.9,1.8-14.3,4.2-18.7,5.3
	c-7.7,2-7.9,2.2-7.9,8.7c0,6.1,0.4,6.7,4.6,6.7c6.6,0,8.1,1.5,12.9,12.9c2.4,5.6,5.8,12.4,7.6,15l0,0c1.8,2.7,2.2,3.4,3.5,3.4
	c3.5,0,5.2,0-1-7.9c-4.4-5.6-5.8-9.2-6.6-17.4c-0.1-1.4-0.2-2.7-0.3-4c-0.1-1.3-0.1-2.5,0-3.6c0.1-1.1,0.2-2.2,0.3-3.3
	c0.2-1,0.4-2,0.7-2.9s0.6-1.8,1-2.6c0.4-0.8,0.9-1.6,1.4-2.3c0.5-0.7,1.1-1.4,1.8-2c0.7-0.6,1.4-1.2,2.3-1.8
	c0.8-0.5,1.7-1.1,2.7-1.5c1-0.5,4.3-1.5,5.3-1.9l-0.5-3.1C346.6,343.6,344.9,344,343.3,344.3L343.3,344.3z M224,374.8
	c-5.3-3-6-4-4.3-6.2c1.1-1.4,4.8-4,8.1-5.8c3.3-1.8,7-4.4,8.2-5.9c4.1-5.2,19.7-2.2,28.4,5.4l5.2,4.5l-8.6,5.2
	C249.4,378.9,233.4,380.1,224,374.8L224,374.8z M358,371.5c-15-6.3-2.6-19.1,18.6-19.1c4.2,0,12.7,6.2,16.9,12.4
	c2,2.9,1.6,3.5-3.7,5.8C383.4,373.3,363.7,373.9,358,371.5L358,371.5z M208.5,398.6c0.5,0.3,1.1,0.6,1.7,0.9
	c0.6,0.3,1.2,0.6,1.9,0.9c0.6,0.3,1.3,0.6,2,0.9c0.7,0.3,1.3,0.6,2,0.8c0.7,0.3,1.3,0.5,2,0.7c0.6,0.2,1.3,0.4,1.9,0.6
	c9.6,2.7,39.3,3.2,50.7,0.9c3.9-0.8,7.4-0.8,7.9-0.1c1.5,2.5-3.7,5.1-17.5,8.5c-7.7,1.9-15.7,4-17.7,4.6c-2.2,0.6-3.7,0.3-3.7-0.7v0
	c0-1,1.7-2.4,3.7-3.1c2.7-0.9-0.7-1.9-11.9-3.5c-2.2-0.3-4.3-0.7-6.3-1.1c-2-0.4-4-0.8-5.8-1.3s-3.6-1-5.2-1.5s-3.1-1.1-4.5-1.8
	c-1.4-0.6-2.7-1.3-3.9-1.9L208.5,398.6z M208,346.2c10.5-2.2,22.1-3.1,41.5-3.1c3,0,5.7,0,8.1,0c2.4,0,4.6,0,6.6,0.1
	c2,0,3.8,0.1,5.4,0.2s4.4,0.4,5.6,0.5l-1.3,3.1c-1.1-0.2-2.5-0.4-3.9-0.6c-1.4-0.1-2.9-0.3-4.5-0.4c-1.6-0.1-3.3-0.2-5-0.2
	s-3.6-0.1-5.5-0.1c-1.9,0-3.9,0-6,0.1s-4.3,0.1-6.6,0.2c-3.4,0.1-6.5,0.3-9.4,0.5c-2.9,0.2-5.7,0.4-8.2,0.7c-2.5,0.3-4.8,0.6-7,0.9
	s-3.6,0.6-5.3,1L208,346.2 M281,344.8c1.1,0.3,2.1,0.5,3.2,0.9c1.1,0.3,2.2,0.7,3.4,1.1c5.9,2.1,13.6,4.3,17,4.8
	c5.9,1,6.2,1.3,6.2,7.5c0,5.1-0.8,6.9-3.7,8.3c-2.4,1.1-5.2,5.7-7.8,12.5c-4.6,12.3-14.1,24.9-17.3,22.8c-1.6-1-1.6-2.2,2.3-6.3
	c7.2-7.7,12.2-24.5,10.1-34.1c-0.2-0.9-0.4-1.7-0.7-2.5s-0.6-1.5-0.9-2.3c-0.4-0.7-0.7-1.4-1.2-2c-0.4-0.6-0.9-1.3-1.5-1.8
	s-1.1-1.1-1.8-1.6c-0.6-0.5-1.3-1-2.1-1.4c-0.8-0.4-1.6-0.9-2.5-1.2s-1.8-0.7-2.8-1c-1-0.3-2.1-0.6-3.1-0.8l1.1-3.3
	C279.8,344.5,279.9,344.5,281,344.8L281,344.8z M207.2,350.9c-1.4,0.5-2.7,1.1-3.8,1.7c-1.1,0.6-2,1.3-2.8,2c-0.8,0.7-1.4,1.5-2,2.3
	c-2.4,3.9-2.5,5.9-0.5,20c0.3,1.8,0.5,3.4,0.7,4.8c0.2,1.4,0.4,2.7,0.6,3.8s0.4,2.1,0.6,3c0.2,0.9,0.5,1.6,0.7,2.3
	c0.3,0.7,0.5,1.3,0.8,1.8c0.3,0.5,0.7,1,1,1.5c0.4,0.5,0.8,0.9,1.3,1.3c0.5,0.4,1,0.9,1.7,1.4l-3.2,3.4c-1-0.7-1.8-1.4-2.4-2.2
	s-1.2-1.6-1.5-2.4c-1.1-2.4-3.6-8.7-5.5-14.1s-4.6-10.2-5.9-10.7c-1.7-0.7-2.3-4-2.3-11.3c0-8.4,0.6-10.7,3.2-12.1
	c2.2-1.2,3.4-1.2,3.8,0.1c0.1,0.3,0.5,0.5,1.2,0.6c0.7,0.1,1.7,0.1,2.9,0c1.3-0.1,5.9-0.9,7.8-1.2L207.2,350.9"/>
<path id="path3243" inkscape:connector-curvature="0" class="st0" d="M342.5,181.9c-0.4-1.3-0.8-2.6-1.3-3.9
	c-0.5-1.3-1.2-2.5-1.7-3.8c-0.5-1.6-1.2-3.2-2.1-4.6c-0.8-1.7-6.6-10.9-7.6-12.5c4.8,1.4,9.8,3.8,14.5,6c3.2,1.4,7.9,4.5,9.5,4.5
	c6,0,33.8,20.8,48.2,35.9c33.5,35.4,55.8,68.9,63.9,96c9.1,30.4,11.5,40.6,16,67.3c5.9,35.1,6.3,92.2,0.7,108.7
	c-4.6,13.5-20.6,40.4-29.8,50c-11.4,11.9-22.7,21.6-25.2,21.6c-1.2,0-2.1,1.1-2.1,2.4c0,1.3-2.4,3.7-5.4,5.3s-4.9,3-7.2,4.3
	c-2.3,1.3-5.7,2.4-7.9,2.5c-2.2,0-5.1-0.6-6.9,1.3c-2.9,2.9-2.4,2.1-6.3-0.1c-4-2.2-7.8,2.1,2.9-6.7c7-5.8,10.9-10.2,10.9-12.4
	c0-1.9,1.5-5.6,3.4-8.2c1.8-2.6,3.8-7.8,4.3-11.6c1.2-9.5,7.4-30.1,9-30.1c0.7,0,1.6,1,2,2.1c0.5,1.7,1.6,1.7,5.1,0
	c3.1-1.5,4.4-1.5,4.4-0.2c0,1.3,0.7,1.3,2.3-0.1c1.8-1.5,2.5-1.5,3.2,0.2c0.5,1.2,0.9,0.2,1-2.4c0.1-2.6-1.7-6.9-4.2-9.9
	c-2.4-2.9-3.6-5.3-2.7-5.3c0.9,0,1.7-2.9,1.8-6.5c0.1-3.6,0.3-8.8,0.5-11.6c0.9-15.9-2-21.5-4.3-8.2c-0.6,3.6-2.2,8.2-3.6,10.4
	c-2.1,3.5-2.1,4,0.1,4.9c3.4,1.4,3.2,5.2-0.3,6.6c-2.2,0.9-2.3,1.5-0.8,2.5c1.6,1.1,1.5,1.8-0.5,3.6c-1.4,1.2-2.6,4.1-2.6,6.3
	c0,2.3-0.6,4.1-1.3,4.1c-0.7,0-1-3.6-0.6-8c0.3-4.4-0.1-9.6-1-11.6c-4.1-9.2-5.4-13.7-5.4-18.9c0-12-2.1-18.4-8.1-25.1
	c-5.2-5.9-7.7-7.1-19.3-9.7c-15.2-3.4-36.7-10.7-41.1-13.9c-4.6-3.3-0.5-4.9,6.6-2.5c4,1.4,13.6,1.8,28.6,1.3
	c26.1-0.9,34.8-1.2,39.3-12.5c1.1-2.8,1.5-3.5,2.2-5.1c0.8-2.2,5.2-19.8,5.2-27.4c0-7.1-2.7-17.1-5-18.6c-0.9-0.6-2.8-8-4.2-16.5
	c-2.3-14.1-5.5-24.9-14.1-47.7c-3.9-10.5-22.7-39.8-31.3-48.7c-8.9-9.4-16.5-18.5-25.8-21C348.9,196.3,345.1,188.7,342.5,181.9
	L342.5,181.9z M317.8,207.5c-3.2,0.9-9.5,2.4-14.1,3.2c-9.4,1.6-19.9,5.3-28.8,10.2c-3.3,1.8-10.2,5.5-15.3,8.2
	c-5.1,2.7-12.2,6.9-15.8,9.4c-7.8,5.4-23.9,24.3-23.9,28c0,1.4-0.7,3.1-1.6,3.7c-2.7,1.8-19.1,37.3-22.3,48.3
	c-3.5,12.3-10.4,28-12.7,28.8c-0.9,0.3-1.8,5.5-2,11.5c-0.4,9-1.1,11.4-4.2,13.9c-2.1,1.6-4.6,6-5.6,9.8c-1.6,6-1.8,12.7-1.3,41.2
	c0.1,3.7,1,7.9,2,9.2c2,2.5,2.2,9,1.3,40.9c-0.4,16.3,0.1,20.9,3.6,32.6c3.1,10.3,5,14,7.7,15.1c2,0.8,4.1,2.8,4.7,4.5
	c0.6,1.7,2.6,5.3,4.4,8l3.3,5l-5.2,10.7c-2.9,5.9-5.2,11.6-5.2,12.7c0,1.4-0.9,1.5-2.9,0.3c-1.6-0.9-9.2-3.2-17-5.1
	c-18.3-4.5-49.4-15.1-54.7-18.7c-2.3-1.5-4.9-3.8-5.8-5c-0.9-1.2-4.6-4.5-8.1-7.2c-6.9-5.3-7.7-7.2-22-52.9
	c-3.3-10.4-7-20.5-8.2-22.4c-1.3-1.9-2.3-6.4-2.3-10.1c0-3.7-2.2-11.8-4.8-18.2c-3.2-7.8-5.2-15.9-5.9-25.3
	c-0.6-7.6-2.2-18.2-3.5-23.5c-1.3-5.4-2.4-12.5-2.4-15.9c0-7.6,7.1-29.4,14-43.3c2.8-5.7,10-20.1,16-31.9
	c13.6-27.2,38-59.3,56.4-74.1c4-3.2,9.9-8.5,13.1-11.6c15-14.8,63.4-40,85.6-44.6c10.3-2.1,24.3-0.9,45.5,0
	c7.1,0.3,13.4,0.7,19.2,1.3c5.8,0.6,12.3,0.5,16.6,1c2,5.4,5.7,8.5,9.3,15.4c1,1.5,1.9,3.1,2.6,4.7c0.8,1.5,1.4,3,2,4.6
	c1.3,2.5,2.3,5.1,3,7.7c2.5,5.2,5.1,15.4,5.3,15.9C336.4,203.6,323.9,205.7,317.8,207.5L317.8,207.5z"/>
<g>
	<path class="st0" d="M68.2,69.7V15.4h14.3v54.3H68.2z M92.5,66.9L91.1,64l-1.4-2.9l-1.4-2.9l-1.4-2.9l-1.4-2.9V21.1l1.4,2.9
		l1.4,2.9l1.4,2.9l1.4,2.9l1.4,2.9l1.4,2.9l1.4-2.9l1.4-2.9l1.4-2.9l1.4-2.9l1.4-2.9l1.4-2.9l1.4-2.9l1.4-2.9h14.3v54.3h-14.3V46.9
		l-1.4,2.9l-1.4,2.9l-1.4,2.9l-1.4,2.9l-1.4,2.9L96.8,64l-1.4,2.9l-1.4,2.9L92.5,66.9z"/>
	<path class="st0" d="M122.5,69.7V15.4h14.3v54.3H122.5z"/>
	<path class="st0" d="M139.7,69.7V15.4H154v54.3H139.7z M164,69.7l-1.4-2.9l-1.4-2.9l-1.4-2.9l-1.4-2.9l-1.4-2.9V29.7l1.4-2.9
		l1.4-2.9l1.4-2.9l1.4-2.9l1.4-2.9h15.7l-1.4,2.9l-1.4,2.9l-1.4,2.9l-1.4,2.9l-1.4,2.9l-1.4,2.9l-1.4,2.9l-1.4,2.9l-1.4,2.9
		l-0.7,1.4l0.7,1.4l1.4,2.9l1.4,2.9l1.4,2.9l1.4,2.9l1.4,2.9l1.4,2.9l1.4,2.9l1.4,2.9l1.4,2.9H164z"/>
	<path class="st0" d="M182.6,69.7V15.4h14.3v54.3H182.6z M199.7,69.7V55.4h17.2v14.3H199.7z"/>
	<path class="st0" d="M219.7,49.7V35.4h37.2v14.3H219.7z"/>
	<path class="st0" d="M259.8,69.7V15.4h14.3v54.3H259.8z M276.9,69.7V55.4h17.2v14.3H276.9z"/>
	<path class="st0" d="M296.9,69.7V15.4h14.3v54.3H296.9z M314.1,29.7V15.4H337v14.3H314.1z M314.1,49.7V35.4h11.4v14.3H314.1z
		 M314.1,69.7V55.4H337v14.3H314.1z"/>
	<path class="st0" d="M339.8,69.7V15.4h14.3v54.3H339.8z"/>
	<path class="st0" d="M357,29.7V15.4h10v14.3H357z M369.8,69.7V15.4H397v14.3h-12.9v40H369.8z"/>
	<path class="st0" d="M399.9,69.7V15.4h14.3v54.3H399.9z M425.6,69.7l-1.4-2.9l-1.4-2.9l-1.4-2.9l-1.4-2.9l-1.4-2.9l-1.4-2.9V21.1
		l1.4,2.9l1.4,2.9l1.4,2.9l1.4,2.9l1.4,2.9l1.4,2.9V15.4h14.3v54.3H425.6z"/>
	<path class="st0" d="M442.8,69.7V15.4h14.3v54.3H442.8z M459.9,29.7V15.4h22.9v14.3H459.9z M459.9,49.7V35.4h11.4v14.3H459.9z
		 M459.9,69.7V55.4h22.9v14.3H459.9z"/>
	<path class="st0" d="M485.6,69.7V15.4h14.3v54.3H485.6z M511.4,69.7l-1.4-2.9l-1.4-2.9l-1.4-2.9l-1.4-2.9l-1.4-2.9l-1.4-2.9V35.4
		h7.1l1.4-1.4v-2.9l-1.4-1.4h-7.1V15.4h14.3l2.9,2.9l2.9,2.9l2.9,2.9v17.2l-2.9,2.9l-2.9,2.9l-2.9,2.9l1.4,2.9l1.4,2.9l1.4,2.9
		l1.4,2.9l1.4,2.9l1.4,2.9l1.4,2.9H511.4z"/>
	<path class="st0" d="M4.6,136.3V82h14.3v54.3H4.6z"/>
	<path class="st0" d="M43.2,136.3V122H46l1.4-1.4v-2.9l-1.4-1.4H30.3l-2.9-2.9l-2.9-2.9l-2.9-2.9V90.6l2.9-2.9l2.9-2.9l2.9-2.9h10
		v14.3h-3L36,97.7v3l1.4,1.3h15.7l2.9,2.9l2.9,2.9l2.9,2.9v17.2l-2.9,2.9l-2.9,2.9l-2.9,2.9H43.2z M30.3,136.3l-2.9-2.9l-2.9-2.9
		l-2.9-2.9v-8.6H36v1.6l1.4,1.3h2.9v14.3H30.3z M47.4,99.2v-1.4L46,96.3h-2.9V82h10l2.9,2.9l2.9,2.9l2.9,2.9v8.6H47.4z"/>
	<path class="st0" d="M97.5,136.3l-1.4-2.9l-1.4-2.9l-1.4-2.9l-1.4-2.9l-1.4-2.9l-1.4-2.9l-1.4-2.9l-1.4-2.9l-1.4-2.9l-1.4-2.9
		l-1.4-2.9V82h14.3v20l1.4,2.9l1.4,2.9l1.4,2.9v25.7H97.5z M103.2,136.3v-25.7l1.4-2.9l1.4-2.9l1.4-2.9V82h14.3v20l1.4,2.9l1.4,2.9
		l1.4,2.9v25.7h-2.9l-1.4-2.9l-1.4-2.9l-1.4-2.9l-1.4-2.9l-1.4-2.9l-1.4-2.9l-1.4,2.9l-1.4,2.9l-1.4,2.9l-1.4,2.9l-1.4,2.9l-1.4,2.9
		H103.2z M128.9,136.3v-25.7l1.4-2.9l1.4-2.9l1.4-2.9V82h14.3v22.9l-1.4,2.9l-1.4,2.9l-1.4,2.9l-1.4,2.9l-1.4,2.9l-1.4,2.9l-1.4,2.9
		l-1.4,2.9l-1.4,2.9l-1.4,2.9l-1.4,2.9H128.9z"/>
	<path class="st0" d="M150.4,136.3v-28.6l1.4-2.9l1.4-2.9l1.4-2.9l1.4-2.9l1.4-2.9l1.4-2.9l1.4-2.9l1.4-2.9l1.4-2.9h5.7v20l-1.4,2.9
		l-1.4,2.9l-1.4,2.9v2.9h8.6v14.3h-8.6v8.6H150.4z M176.1,136.3v-25.7l-1.4-2.9l-1.4-2.9l-1.4-2.9V82h5.7l1.4,2.9l1.4,2.9l1.4,2.9
		l1.4,2.9l1.4,2.9l1.4,2.9l1.4,2.9l1.4,2.9l1.4,2.9v28.6H176.1z"/>
	<path class="st0" d="M193.3,96.3V82h10v14.3H193.3z M206.1,136.3V82h27.2v14.3h-12.9v40H206.1z"/>
	<path class="st0" d="M244.7,136.3l-2.9-2.9l-2.9-2.9l-2.9-2.9V90.6l2.9-2.9l2.9-2.9l2.9-2.9h10v14.3h-3l-1.3,1.4v23.1l1.4,1.3h2.9
		v14.3H244.7z M261.9,102v-4.3l-1.4-1.4h-2.9V82h10l2.9,2.9l2.9,2.9l2.9,2.9V102H261.9z M257.6,136.3V122h2.9l1.4-1.4v-4.3h14.3
		v11.4l-2.9,2.9l-2.9,2.9l-2.9,2.9H257.6z"/>
	<path class="st0" d="M279.1,136.3V82h14.3v54.3H279.1z M304.8,136.3v-20h-8.6V102h8.6V82h14.3v54.3H304.8z"/>
	<path class="st0" d="M321.9,136.3V82h14.3v54.3H321.9z"/>
	<path class="st0" d="M339.1,136.3V82h14.3v54.3H339.1z M364.8,136.3l-1.4-2.9l-1.4-2.9l-1.4-2.9l-1.4-2.9l-1.4-2.9l-1.4-2.9V87.7
		l1.4,2.9l1.4,2.9l1.4,2.9l1.4,2.9l1.4,2.9l1.4,2.9V82h14.3v54.3H364.8z"/>
	<path class="st0" d="M390.6,136.3l-2.9-2.9l-2.9-2.9l-2.9-2.9V90.6l2.9-2.9l2.9-2.9l2.9-2.9h10v14.3h-3l-1.3,1.4v23.1l1.4,1.3h2.9
		v14.3H390.6z M403.4,136.3V122h2.9l1.4-1.4v-4.3H402v-11.4h20v22.9l-2.9,2.9l-2.9,2.9l-2.9,2.9H403.4z M407.7,102v-4.3l-1.4-1.4
		h-2.9V82h10l2.9,2.9l2.9,2.9l2.9,2.9V102H407.7z"/>
	<path class="st0" d="M453.5,104.9L452,102l-1.4-2.9l-1.4-2.9l-1.4-2.9l-1.4-2.9l-1.4-2.9l-1.4-2.9L442,82h15.7l1.4,2.9l1.4,2.9
		l1.4,2.9l-1.4,2.9l-1.4,2.9l-1.4,2.9l-1.4,2.9l-1.4,2.9H453.5z M456.3,136.3v-28.6l1.4-2.9l1.4-2.9l1.4-2.9l1.4-2.9l1.4-2.9
		l1.4-2.9l1.4-2.9l1.4-2.9l1.4-2.9h15.7l-1.4,2.9l-1.4,2.9l-1.4,2.9l-1.4,2.9l-1.4,2.9l-1.4,2.9l-1.4,2.9l-1.4,2.9l-1.4,2.9
		l-1.4,2.9v25.7H456.3z"/>
	<path class="st0" d="M496.4,136.3l-2.9-2.9l-2.9-2.9l-2.9-2.9V90.6l2.9-2.9l2.9-2.9l2.9-2.9h10v14.3h-3l-1.3,1.4v23.1l1.4,1.3h2.9
		v14.3H496.4z M509.2,136.3V122h2.9l1.4-1.4V97.7l-1.4-1.4h-2.9V82h10l2.9,2.9l2.9,2.9l2.9,2.9v37.2l-2.9,2.9l-2.9,2.9l-2.9,2.9
		H509.2z"/>
	<path class="st0" d="M539.3,136.3l-2.9-2.9l-2.9-2.9l-2.9-2.9V82H545v38.8l1.4,1.3h2.9v14.3H539.3z M552.1,136.3V122h2.9l1.4-1.4
		V82h14.3v45.8l-2.9,2.9l-2.9,2.9l-2.9,2.9H552.1z"/>
	<path class="st0" d="M573.6,116.3V82h14.3v34.3H573.6z M573.6,136.3V122h14.3v14.3H573.6z"/>
</g>
<g>
	<path class="st0" d="M133.6,735.7v-21.9h4.4l2.2-2.2v-4.4l-2.2-2.2h-24.1l-4.4-4.4l-4.4-4.4l-4.4-4.4v-26.3l4.4-4.4l4.4-4.4
		l4.4-4.4h15.3v21.9h-4.6l-1.9,2.2v4.6l2.2,1.9h24.1l4.4,4.4l4.4,4.4l4.4,4.4v26.3l-4.4,4.4l-4.4,4.4l-4.4,4.4H133.6z M113.9,735.7
		l-4.4-4.4l-4.4-4.4l-4.4-4.4v-13.1h21.9v2.5l2.2,1.9h4.4v21.9H113.9z M140.1,678.8v-2.2l-2.2-2.2h-4.4v-21.9h15.3l4.4,4.4l4.4,4.4
		l4.4,4.4v13.1H140.1z"/>
	<path class="st0" d="M166.4,674.5v-21.9h15.3v21.9H166.4z M186.1,735.7v-83.1h41.6v21.9H208v61.3H186.1z"/>
	<path class="st0" d="M232,735.7V692l2.2-4.4l2.2-4.4l2.2-4.4l2.2-4.4l2.2-4.4l2.2-4.4l2.2-4.4l2.2-4.4l2.2-4.4h8.8v30.6l-2.2,4.4
		l-2.2,4.4l-2.2,4.4v4.4H267v21.9h-13.1v13.1H232z M271.4,735.7v-39.4l-2.2-4.4l-2.2-4.4l-2.2-4.4v-30.6h8.8l2.2,4.4l2.2,4.4
		l2.2,4.4l2.2,4.4l2.2,4.4l2.2,4.4l2.2,4.4l2.2,4.4l2.2,4.4v43.8H271.4z"/>
	<path class="st0" d="M297.6,735.7V692l2.2-4.4l2.2-4.4l2.2-4.4l2.2-4.4l2.2-4.4l2.2-4.4l2.2-4.4l2.2-4.4l2.2-4.4h8.8v30.6l-2.2,4.4
		l-2.2,4.4l-2.2,4.4v4.4h13.1v21.9h-13.1v13.1H297.6z M337,735.7v-39.4l-2.2-4.4l-2.2-4.4l-2.2-4.4v-30.6h8.8l2.2,4.4l2.2,4.4
		l2.2,4.4l2.2,4.4l2.2,4.4l2.2,4.4l2.2,4.4l2.2,4.4l2.2,4.4v43.8H337z"/>
	<path class="st0" d="M363.3,674.5v-21.9h15.3v21.9H363.3z M383,735.7v-83.1h41.6v21.9h-19.7v61.3H383z"/>
	<path class="st0" d="M461.7,735.7v-21.9h4.4l2.2-2.2v-4.4l-2.2-2.2H442l-4.4-4.4l-4.4-4.4l-4.4-4.4v-26.3l4.4-4.4l4.4-4.4l4.4-4.4
		h15.3v21.9h-4.6l-1.9,2.2v4.6l2.2,1.9H477l4.4,4.4l4.4,4.4l4.4,4.4v26.3l-4.4,4.4l-4.4,4.4l-4.4,4.4H461.7z M442,735.7l-4.4-4.4
		l-4.4-4.4l-4.4-4.4v-13.1h21.9v2.5l2.2,1.9h4.4v21.9H442z M468.3,678.8v-2.2l-2.2-2.2h-4.4v-21.9H477l4.4,4.4l4.4,4.4l4.4,4.4v13.1
		H468.3z"/>
	<path class="st0" d="M52.6,829.7v-21.9H57l2.2-2.2v-4.4l-2.2-2.2H33l-4.4-4.4l-4.4-4.4l-4.4-4.4v-26.3l4.4-4.4l4.4-4.4l4.4-4.4
		h15.3v21.9h-4.6l-1.9,2.2v4.6l2.2,1.9H68l4.4,4.4l4.4,4.4l4.4,4.4v26.3l-4.4,4.4l-4.4,4.4l-4.4,4.4H52.6z M33,829.7l-4.4-4.4
		l-4.4-4.4l-4.4-4.4v-13.1h21.9v2.5l2.2,1.9h4.4v21.9H33z M59.2,772.8v-2.2l-2.2-2.2h-4.4v-21.9H68l4.4,4.4l4.4,4.4l4.4,4.4v13.1
		H59.2z"/>
	<path class="st0" d="M98.6,829.7l-4.4-4.4l-4.4-4.4l-4.4-4.4v-56.9l4.4-4.4l4.4-4.4l4.4-4.4h15.3v21.9h-4.6l-1.9,2.2v35.3l2.2,1.9
		h4.4v21.9H98.6z M124.8,777.2v-6.6l-2.2-2.2h-4.4v-21.9h15.3l4.4,4.4l4.4,4.4l4.4,4.4v17.5H124.8z M118.3,829.7v-21.9h4.4l2.2-2.2
		v-6.6h21.9v17.5l-4.4,4.4l-4.4,4.4l-4.4,4.4H118.3z"/>
	<path class="st0" d="M151.1,829.7v-83.1H173v83.1H151.1z M190.5,829.7v-30.6h-13.1v-21.9h13.1v-30.6h21.9v83.1H190.5z"/>
	<path class="st0" d="M229.8,829.7l-4.4-4.4l-4.4-4.4l-4.4-4.4v-70h21.9v59.3l2.2,1.9h4.4v21.9H229.8z M249.5,829.7v-21.9h4.4
		l2.2-2.2v-59.1H278v70l-4.4,4.4l-4.4,4.4l-4.4,4.4H249.5z"/>
	<path class="st0" d="M282.3,768.5v-21.9h15.3v21.9H282.3z M302,829.7v-83.1h41.6v21.9h-19.7v61.3H302z"/>
	<path class="st0" d="M348,829.7l2.2-4.4l2.2-4.4l2.2-4.4l2.2-4.4l2.2-4.4l2.2-4.4l2.2-4.4l2.2-4.4l2.2-4.4l2.2-4.4l2.2-4.4l2.2-4.4
		l2.2-4.4l2.2-4.4l2.2-4.4l2.2-4.4l2.2-4.4l2.2-4.4l2.2-4.4h24.1l-2.2,4.4l-2.2,4.4l-2.2,4.4l-2.2,4.4l-2.2,4.4l-2.2,4.4l-2.2,4.4
		l-2.2,4.4l-2.2,4.4l-2.2,4.4l-2.2,4.4l-2.2,4.4l-2.2,4.4l-2.2,4.4l-2.2,4.4l-2.2,4.4l-2.2,4.4l-2.2,4.4l-2.2,4.4H348z M348,768.5
		v-21.9h37.2L383,751l-2.2,4.4l-2.2,4.4l-2.2,4.4l-2.2,4.4H348z M376.4,829.7l2.2-4.4l2.2-4.4l2.2-4.4l2.2-4.4l2.2-4.4h26.3v21.9
		H376.4z"/>
	<path class="st0" d="M418,829.7v-21.9h21.9v21.9H418z"/>
	<path class="st0" d="M444.2,829.7V786l2.2-4.4l2.2-4.4l2.2-4.4l2.2-4.4l2.2-4.4l2.2-4.4l2.2-4.4l2.2-4.4l2.2-4.4h8.8v30.6l-2.2,4.4
		l-2.2,4.4l-2.2,4.4v4.4h13.1v21.9h-13.1v13.1H444.2z M483.6,829.7v-39.4l-2.2-4.4l-2.2-4.4l-2.2-4.4v-30.6h8.8l2.2,4.4l2.2,4.4
		l2.2,4.4l2.2,4.4l2.2,4.4l2.2,4.4l2.2,4.4l2.2,4.4l2.2,4.4v43.8H483.6z"/>
	<path class="st0" d="M509.8,768.5v-21.9h15.3v21.9H509.8z M529.5,829.7v-83.1h41.6v21.9h-19.7v61.3H529.5z"/>
</g>
</svg>
